<svg xmlns="http://www.w3.org/2000/svg" width="300" height="300" viewBox="0 0 110.003 110.003">
  <defs>
    <style>
      .cls-1 {
        fill: #fff;
        fill-rule: evenodd;
      }
    </style>
  </defs>
  <path id="earth_n" class="cls-1" d="M41.077,15.233l0.053,0.408-0.612.127-0.081.87H41.17l0.975-.094,0.5-.6-0.535-.208L41.821,15.4l-0.44-.713L41.17,13.68l-0.827.168-0.232.355v0.4l0.4,0.273Zm-0.7.335,0.044-.545-0.485-.209-0.679.157-0.5.808V16.3h0.587ZM26.4,17.883l-0.149.385H25.531v0.373H25.7s0.01,0.079.025,0.183l0.443-.037,0.277-.172,0.072-.347,0.359-.031,0.141-.292-0.329-.068Zm-1.863.678-0.028.365,0.524-.044,0.054-.367-0.314-.248ZM55.993,30.216c-0.008-.8-0.049-1.6-0.124-2.389a27.331,27.331,0,0,0-1.82-7.488c-0.07-.175-0.135-0.353-0.209-0.526a27.533,27.533,0,0,0-5.158-7.969c-0.141-.152-0.285-0.3-0.429-0.448-0.406-.422-0.824-0.834-1.256-1.228a27.444,27.444,0,0,0-37.116.117,27.833,27.833,0,0,0-3.144,3.433A27.487,27.487,0,1,0,52.986,42.993a27.236,27.236,0,0,0,2.245-6.056c0.13-.54.242-1.081,0.339-1.63A27.5,27.5,0,0,0,56,30.5C56,30.4,55.994,30.311,55.993,30.216ZM50.817,19.225l0.159-.179c0.209,0.406.4,0.819,0.592,1.237l-0.26-.01-0.491.068V19.225Zm-3.974-4.8,0-1.228q0.648,0.687,1.247,1.418l-0.5.737-1.732-.016-0.109-.361ZM13.671,11.374V11.327h0.551l0.047-.189h0.9v0.394l-0.259.346H13.67v-0.5h0Zm0.88,1.227s0.551-.094.6-0.094a2.13,2.13,0,0,1,0,.55l-1.242.078-0.236-.283ZM52.569,23.517H50.557L49.331,22.6l-1.291.126v0.787H47.632L47.191,23.2l-2.235-.567V21.188l-2.832.221-0.878.472H40.122l-0.551-.055-1.365.758v1.426l-2.79,2.013,0.232,0.86h0.566l-0.148.819-0.4.146-0.022,2.14,2.412,2.746h1.05l0.063-.167h1.887l0.544-.5h1.07l0.587,0.588,1.595,0.165L44.64,34.937l1.77,3.125-0.932,1.782,0.063,0.839,0.734,0.732v2.018l0.964,1.3v1.676h0.832a25.227,25.227,0,0,1-42.8-25.782V19.835l0.9-1.1q0.47-.887,1.008-1.731l0.041,0.458L6.18,18.739c-0.325.613-.628,1.24-0.9,1.883v1.437l1.049,0.5v2l1.006,1.716L8.15,26.4l0.105-.588L7.29,24.325,7.1,22.878H7.667l0.239,1.489L9.3,26.4l-0.36.657,0.887,1.356,2.2,0.545V28.6l0.881,0.126-0.084.629,0.692,0.127,1.069,0.292L16.1,31.5l1.928,0.146,0.189,1.573-1.32.923-0.062,1.4-0.189.86,1.909,2.39L18.7,39.613s0.692,0.188.777,0.188,1.552,1.112,1.552,1.112v4.32l0.524,0.147L21.2,47.372l0.881,1.175-0.163,1.975,1.164,2.046,1.494,1.305,1.5,0.027,0.147-.483-1.1-.93,0.063-.462,0.2-.566,0.042-.577-0.747-.023L24.3,50.389l0.62-.6L25,49.343l-0.692-.2,0.041-.418,0.986-.149,1.5-.721,0.5-.923,1.573-2.013-0.357-1.575,0.483-.838,1.447,0.044,0.974-.771,0.314-3.038,1.08-1.372,0.189-.881-0.985-.316-0.65-1.067-2.223-.023-1.762-.672-0.084-1.257L26.75,32.127,25.156,32.1l-0.921-1.446-0.818-.4-0.042.441-1.488.088-0.545-.759-1.553-.316L18.51,31.192,16.5,30.85,16.35,28.581l-1.469-.251,0.589-1.113L15.3,26.578l-1.931,1.291-1.215-.148-0.433-.949,0.265-.978,0.67-1.234,1.542-.78h2.977l-0.008.908,1.07,0.5-0.085-1.552,0.771-.776,1.556-1.023,0.106-.719L22.139,19.5l1.65-.914-0.146-.12,1.117-1.052,0.41,0.109,0.188,0.235,0.424-.47,0.1-.046-0.465-.066-0.472-.157V16.564l0.25-.2h0.551L26,16.47l0.218,0.441,0.267-.041V16.832l0.077,0.026,0.774-.119,0.11-.378,0.441,0.111v0.41l-0.41.282h0l0.06,0.449,1.4,0.432,0,0.017,0.322-.027,0.021-.607-1.111-.506-0.063-.292,0.922-.314,0.041-.882-0.964-.587-0.063-1.487-1.321.649H26.249l0.127-1.132-1.8-.424-0.744.562v1.715l-1.338.424L21.958,16.27l-0.581.094v-1.43l-1.258-.174-0.629-.409-0.253-.926,2.25-1.317,1.1-.335,0.111,0.74,0.613-.032,0.047-.372L24,12.017l0.011-.13-0.276-.114-0.063-.394,0.788-.067,0.476-.5,0.026-.036,0.006,0,0.145-.149,1.657-.209L27.5,11.047,25.581,12.07l2.445,0.577,0.317-.818h1.069l0.378-.713-0.756-.189v-0.9l-2.37-1.05-1.636.189-0.923.483,0.063,1.174L23.2,10.676l-0.148-.649,0.924-.839L22.3,9.1l-0.482.146-0.209.566,0.629,0.106-0.125.629-1.069.063-0.167.418-1.551.043a4.251,4.251,0,0,0-.105-0.88c-0.062,0,1.216-.021,1.216-0.021l0.924-.9-0.5-.252-0.671.652-1.113-.063L18.4,8.684H16.978L15.49,9.8h1.364l0.124,0.4-0.354.329,1.51,0.042,0.231,0.545-1.7-.063-0.083-.42L15.513,10.4l-0.567-.314-1.273.01a25.165,25.165,0,0,1,31.487,1.474l-0.3.536-1.164.456-0.491.533,0.113,0.621,0.6,0.084,0.362,0.9,1.036-.417,0.171,1.21H45.177l-0.851-.126-0.943.158-0.913,1.29-1.305.2-0.189,1.117,0.551,0.13-0.16.718-1.3-.26-1.189.26-0.252.662,0.206,1.389,0.7,0.327,1.171-.007,0.791-.071,0.241-.629,1.235-1.6,0.813,0.166,0.8-.724,0.149,0.566L46.7,20.39l-0.241.323-0.888-.047,0.342,0.484,0.546,0.12L47.1,21l-0.014-.771,0.284-.143-0.229-.242-1.314-.733-0.346-.974h1.093l0.349,0.346L47.869,19.3l0.04,0.981,0.975,1.038,0.363-1.423,0.675-.369,0.127,1.164,0.66,0.724,1.315-.023q0.382,0.982.683,2ZM16,15.494l0.661-.314,0.6,0.143-0.206.8-0.645.2ZM19.5,17.382V17.9H18l-0.566-.157,0.141-.362,0.725-.3h0.991v0.3H19.5ZM20.2,18.106v0.5l-0.378.243-0.471.087V18.106H20.2Zm-0.425-.2V17.3l0.519,0.473Zm0.236,1.21V19.6l-0.361.362h-0.8l0.126-.55,0.379-.033,0.078-.189Zm-2-1.006h0.834L17.778,19.6l-0.441-.236,0.095-.629Zm3.414,0.834v0.489h-0.8l-0.22-.317V18.657h0.063Zm-0.741-.672,0.228-.24,0.386,0.24-0.309.255Zm32.293,6.523,0.079-.093c0.033,0.142.068,0.285,0.1,0.43Zm-47.7-4.955v0.787c0.275-.642.578-1.269,0.9-1.883Z" transform="translate(26.501 24.501)"/>
</svg>
