<svg xmlns="http://www.w3.org/2000/svg" viewBox="0 0 300 300"><defs><style>.a{fill:#fff;}.b{fill:#ff4f19;}.c{fill:#5c546a;}.d{fill:#b9bbc1;}.e{fill:#ffd200;}.f{fill:#53dcff;}.g{fill:#e9001e;}.h{fill:#8b8996;}</style></defs><title>enterpriseapps</title><rect class="a" x="31.2" y="65.5" width="237.6" height="146.22"/><rect class="b" x="31.2" y="65.5" width="237.6" height="36.55"/><path class="c" d="M266,47.2H34a21,21,0,0,0-21,21V234.5a4.6,4.6,0,0,0,4.6,4.6h265a4.6,4.6,0,0,0,4.6-4.6V68.2A21.1,21.1,0,0,0,266,47.2ZM31.2,207.1V70a4.6,4.6,0,0,1,4.6-4.6H264.2a4.6,4.6,0,0,1,4.6,4.6V207.1a4.6,4.6,0,0,1-4.6,4.6H35.8A4.6,4.6,0,0,1,31.2,207.1Z"/><path class="d" d="M291.6,230H8.4a4.6,4.6,0,0,0-4.6,4.6h0a18.3,18.3,0,0,0,18.3,18.3H277.9a18.3,18.3,0,0,0,18.3-18.3h0A4.6,4.6,0,0,0,291.6,230Z"/><path class="e" d="M86,88.3H54a4.6,4.6,0,0,1,0-9.1H86A4.6,4.6,0,1,1,86,88.3Z"/><path class="a" d="M168.3,88.3h-4.6a4.6,4.6,0,0,1,0-9.1h4.6A4.6,4.6,0,1,1,168.3,88.3Z"/><path class="a" d="M191.1,88.3h-4.6a4.6,4.6,0,1,1,0-9.1h4.6A4.6,4.6,0,1,1,191.1,88.3Z"/><path class="a" d="M214,88.3h-4.6a4.6,4.6,0,1,1,0-9.1H214A4.6,4.6,0,0,1,214,88.3Z"/><path class="a" d="M236.8,88.3h-4.6a4.6,4.6,0,1,1,0-9.1h4.6A4.6,4.6,0,1,1,236.8,88.3Z"/><path class="f" d="M131.7,198H54a4.6,4.6,0,0,1-4.6-4.6V120.3a4.6,4.6,0,0,1,4.6-4.6h77.7a4.6,4.6,0,0,1,4.6,4.6v73.1A4.6,4.6,0,0,1,131.7,198Z"/><path class="b" d="M241.4,124.9H154.6a4.6,4.6,0,1,1,0-9.1h86.8A4.6,4.6,0,1,1,241.4,124.9Z"/><path class="d" d="M191.1,161.4H154.6a4.6,4.6,0,1,1,0-9.1h36.6A4.6,4.6,0,1,1,191.1,161.4Z"/><path class="d" d="M191.1,179.7H154.6a4.6,4.6,0,1,1,0-9.1h36.6A4.6,4.6,0,1,1,191.1,179.7Z"/><path class="d" d="M191.1,198H154.6a4.6,4.6,0,1,1,0-9.1h36.6A4.6,4.6,0,1,1,191.1,198Z"/><path class="d" d="M246,161.4H209.4a4.6,4.6,0,1,1,0-9.1H246A4.6,4.6,0,1,1,246,161.4Z"/><path class="d" d="M246,179.7H209.4a4.6,4.6,0,1,1,0-9.1H246A4.6,4.6,0,1,1,246,179.7Z"/><path class="d" d="M246,198H209.4a4.6,4.6,0,1,1,0-9.1H246A4.6,4.6,0,1,1,246,198Z"/><path class="g" d="M214,143.1H154.6a4.6,4.6,0,1,1,0-9.1H214A4.6,4.6,0,0,1,214,143.1Z"/><path class="h" d="M131.7,239.1h36.6a9.1,9.1,0,0,0,9.1-9.1H122.6A9.1,9.1,0,0,0,131.7,239.1Z"/></svg>