<svg xmlns="http://www.w3.org/2000/svg" xmlns:xlink="http://www.w3.org/1999/xlink" viewBox="0 0 1280 600"><defs><style>.cls-1,.cls-16{fill:url(#linear-gradient);}.cls-1{clip-rule:evenodd;}.cls-2{opacity:0.6;}.cls-3{opacity:0.15;}.cls-4{fill:#b52e31;}.cls-5{fill:#e23237;}.cls-6{fill:#fff;}.cls-7{fill:#5d87a1;}.cls-8{fill:#f8981d;}.cls-9{fill:#ee4323;}.cls-12,.cls-40,.cls-9{opacity:0.1;}.cls-10{opacity:0.35;}.cls-11{fill:#4e8ef7;}.cls-13,.cls-15{fill:#699f63;}.cls-14{fill:#333;}.cls-14,.cls-15,.cls-16{fill-rule:evenodd;}.cls-17{clip-path:url(#clip-path);}.cls-18,.cls-35{fill:none;}.cls-19{fill:url(#linear-gradient-3);}.cls-20{fill:url(#linear-gradient-4);}.cls-21{fill:url(#linear-gradient-5);}.cls-22{fill:url(#linear-gradient-6);}.cls-23{fill:url(#linear-gradient-7);}.cls-24{fill:url(#linear-gradient-8);}.cls-25{fill:url(#radial-gradient);}.cls-26{fill:#31c5f0;}.cls-27{fill:#222;}.cls-27,.cls-36{opacity:0.2;}.cls-28{opacity:0.05;}.cls-29{fill:#8e714e;}.cls-30{fill:#442d22;}.cls-31{fill:#a6a385;}.cls-32{fill:#499d4a;}.cls-33{fill:#58aa50;}.cls-34{fill:#a4c639;}.cls-35{stroke:#a4c639;stroke-linecap:round;stroke-linejoin:round;stroke-width:3px;}.cls-37{fill:#a5b0b8;}.cls-38{fill:#32383d;}.cls-39{fill:#444;}.cls-40{fill:#fc490b;}</style><linearGradient id="linear-gradient" x1="1099.89" y1="335.83" x2="1089.41" y2="357.22" gradientUnits="userSpaceOnUse"><stop offset="0" stop-color="#41873f"/><stop offset="0.33" stop-color="#418b3d"/><stop offset="0.64" stop-color="#409637"/><stop offset="0.93" stop-color="#3fa92d"/><stop offset="1" stop-color="#3fae2a"/></linearGradient><clipPath id="clip-path"><path id="_Clipping_Path_" data-name="&lt;Clipping Path&gt;" class="cls-1" d="M1095.9,330.8a1.4,1.4,0,0,0-1.4,0l-11.6,6.7a1.4,1.4,0,0,0-.7,1.2v13.4a1.4,1.4,0,0,0,.7,1.2l11.6,6.7a1.4,1.4,0,0,0,1.4,0l11.6-6.7a1.4,1.4,0,0,0,.7-1.2V338.7a1.4,1.4,0,0,0-.7-1.2Z"/></clipPath><linearGradient id="linear-gradient-3" x1="1093.41" y1="347.02" x2="1122.83" y2="325.28" gradientUnits="userSpaceOnUse"><stop offset="0.14" stop-color="#41873f"/><stop offset="0.4" stop-color="#54a044"/><stop offset="0.71" stop-color="#66b748"/><stop offset="0.91" stop-color="#6cc04a"/></linearGradient><linearGradient id="linear-gradient-4" x1="1081.76" y1="328.42" x2="1108.59" y2="328.42" gradientUnits="userSpaceOnUse"><stop offset="0.09" stop-color="#6cc04a"/><stop offset="0.29" stop-color="#66b748"/><stop offset="0.6" stop-color="#54a044"/><stop offset="0.86" stop-color="#41873f"/></linearGradient><linearGradient id="linear-gradient-5" x1="1081.76" y1="345.45" x2="1108.59" y2="345.45" xlink:href="#linear-gradient-4"/><linearGradient id="linear-gradient-6" x1="1081.76" y1="353.11" x2="1108.59" y2="353.11" xlink:href="#linear-gradient-4"/><linearGradient id="linear-gradient-7" x1="1082.24" y1="356.57" x2="1108.07" y2="356.57" xlink:href="#linear-gradient-4"/><linearGradient id="linear-gradient-8" x1="1112.25" y1="335.19" x2="1095.69" y2="368.96" xlink:href="#linear-gradient"/><radialGradient id="radial-gradient" cx="-2314.03" cy="1170.23" r="0.02" gradientTransform="matrix(2291.67, 0, 0, -2218.75, 5303237.11, 2596941.67)" gradientUnits="userSpaceOnUse"><stop offset="0" stop-color="#34364e" stop-opacity="0.98"/><stop offset="1" stop-color="#0c0824"/></radialGradient></defs><title>homebg</title><g id="Layer_1" data-name="Layer 1" class="cls-2"><g class="cls-3"><path class="cls-4" d="M960.1,532.6V513.8h2.4L974,528.9V513.8h2.3v18.7h-2.4l-11.4-15.2v15.2h-2.3Z"/><path class="cls-4" d="M994.9,531.8a13.9,13.9,0,0,1-4.9.9q-10.2,0-10.2-9.7t9.8-9.2a17.4,17.4,0,0,1,5.2.8v2.1a13.6,13.6,0,0,0-5-.9c-5.1,0-7.7,2.4-7.7,7.3s2.5,7.8,7.5,7.8l2.7-.3v-6.3h2.4v7.8h0Z"/><path class="cls-4" d="M998.7,525.3V513.8h2.4v11.5c0,3.6,1.8,5.4,5.4,5.4s5.4-1.8,5.4-5.4V513.8h2.4v11.5c0,4.9-2.6,7.4-7.8,7.4s-7.8-2.5-7.8-7.4h0Z"/><path class="cls-4" d="M1021,513.8v16.8h9.8v2h-12.2V513.8h2.4Z"/><path class="cls-4" d="M1034.3,532.6h-2.5l9.3-21.2,9.3,21.2h-2.7l-2.4-5.9h-6.2l0.7-2h4.7l-3.5-8.5-6.7,16.3h0Z"/><path class="cls-4" d="M1053,532.6V513.8h8c3.6,0,5.4,1.5,5.4,4.5s-1.8,4.3-5.2,5.4l6.4,8.8h-3.2l-5.9-8.4v-1.6c3.6-.6,5.4-1.9,5.4-4.1s-1-2.6-3-2.6h-5.4v16.7H1053Z"/><path class="cls-5" d="M915.3,508.8l19.2-6.8,19.7,6.7L951,534.1l-16.5,9.1-16.2-9-2.9-25.4h0Z"/><path class="cls-4" d="M954.2,508.7L934.5,502v41.2l16.5-9.1,3.2-25.4h0Z"/><path class="cls-6" d="M934.5,506.8h0l-11.9,26.6h4.5l2.4-6h10.7l2.6,6.1H947l-12.5-26.6h0Zm0,8.5,4,8.4H931l3.5-8.4h0Z"/></g><g class="cls-3"><path class="cls-7" d="M792.5,361h-4.8q-0.3-12.2-1.4-22.9h0L778.9,361h-3.7L768,338.1h0q-0.8,10.3-1,22.9h-4.4q0.4-15.3,2.1-28.7h6l6.9,21.1h0l7-21.1h5.7q1.9,15.7,2.2,28.7m20.8-21.2q-2.9,15.9-7.7,23.1-3.7,5.6-8.2,5.6a8.1,8.1,0,0,1-2.9-.7v-2.6h2a4.8,4.8,0,0,0,3.4-1.1,4.2,4.2,0,0,0,1.5-3.1,20.9,20.9,0,0,0-1.2-4.9l-5.3-16.4h4.7l3.8,12.2q1.3,4.2,1.1,5.8a79.9,79.9,0,0,0,4.3-18.1h4.5Z"/><path class="cls-8" d="M877.2,361H863.6V332.3h4.6v25.2h9.1V361Zm-17.2.7-5.3-2.6,1.3-1.3q3.4-3.9,3.4-11.7,0-14.2-11.2-14.2a10.6,10.6,0,0,0-8.5,3.6q-3.4,4-3.4,11.6t3,11.1q2.7,3.2,8.2,3.2a13.2,13.2,0,0,0,3.8-.5l6.9,4Zm-17.1-6.4q-1.7-2.8-1.7-9,0-10.8,6.6-10.8a5.5,5.5,0,0,1,5.1,2.6q1.7,2.8,1.7,8.9,0,10.9-6.6,10.9a5.5,5.5,0,0,1-5.1-2.6m-8.6-2.2a7.6,7.6,0,0,1-2.7,6,10.5,10.5,0,0,1-7.2,2.3,14.4,14.4,0,0,1-8.2-2.7l1.2-2.5a14,14,0,0,0,6.2,1.7,6.5,6.5,0,0,0,4.1-1.1,3.9,3.9,0,0,0,1.6-3.2c0-1.7-1.2-3.2-3.4-4.4l-6-3.4a6.9,6.9,0,0,1-3.3-6.1,7.1,7.1,0,0,1,2.4-5.6,9.2,9.2,0,0,1,6.3-2.1,13.1,13.1,0,0,1,7.3,2.1l-1.1,2.5a14,14,0,0,0-5.5-1.2,4.9,4.9,0,0,0-3.4,1.1,3.6,3.6,0,0,0-1.3,2.7c0,1.7,1.2,3.2,3.5,4.4L831,347c2.2,1.6,3.4,3.3,3.4,6.1"/><path class="cls-7" d="M883,322.7a16,16,0,0,0-6.7,1c-0.5.2-1.3,0.2-1.4,0.9a6.4,6.4,0,0,1,.6,1.1,8.1,8.1,0,0,0,1.8,2.1l2.2,1.6c1.3,0.8,2.9,1.3,4.2,2.2l2.3,1.6a4.5,4.5,0,0,0,1.1.9h0c-0.2-.3-0.3-0.8-0.6-1.1l-1-1a16.5,16.5,0,0,0-3.6-3.5c-1.1-.8-3.5-1.8-4-3.1h-0.1a13.8,13.8,0,0,0,2.4-.6c1.2-.3,2.3-0.2,3.5-0.6l1.7-.5v-0.3c-0.6-.6-1.1-1.5-1.7-2a46.1,46.1,0,0,0-5.7-4.3c-1.1-.7-2.5-1.1-3.6-1.7a3.8,3.8,0,0,1-1.4-.7,14.1,14.1,0,0,1-1.4-2.7c-1-1.9-2-4-2.8-6a37.5,37.5,0,0,0-1.8-3.9,35,35,0,0,0-13.4-13,16.6,16.6,0,0,0-4.4-1.4h-2.6a13.8,13.8,0,0,1-1.6-1.2c-2-1.2-7.1-3.9-8.5-.4s1.4,4.5,2.2,5.6a15.9,15.9,0,0,1,1.8,2.6c0.2,0.6.3,1.2,0.6,1.8a41.5,41.5,0,0,0,1.8,4.6,16.5,16.5,0,0,0,1.3,2.1,2.6,2.6,0,0,1,.9,1.2,9.9,9.9,0,0,0-.8,2.6c-1.2,3.9-.8,8.8,1,11.6,0.6,0.9,1.9,2.8,3.6,2s1.2-2.6,1.7-4.3a2.4,2.4,0,0,1,.2-1h0l1.4,2.9a19.8,19.8,0,0,0,4.5,4.6c0.8,0.6,1.5,1.7,2.5,2.1h-0.1a3.9,3.9,0,0,0-.8-0.7,16.8,16.8,0,0,1-1.8-2.1,44.6,44.6,0,0,1-3.9-6.3c-0.6-1.1-1-2.3-1.5-3.3a3,3,0,0,0-.6-1.2,13,13,0,0,0-1.7,2.4,19.6,19.6,0,0,0-1,5.2h-0.1c-1.1-.3-1.5-1.4-1.9-2.4a15,15,0,0,1-.3-9.3c0.2-.7,1.3-3,0.9-3.7a6.2,6.2,0,0,0-1.3-1.6,14.1,14.1,0,0,1-1.2-2.2c-0.8-1.9-1.2-4.1-2.1-6a18.7,18.7,0,0,0-1.7-2.7,17.2,17.2,0,0,1-1.9-2.7,1.6,1.6,0,0,1-.1-1.4,0.6,0.6,0,0,1,.5-0.5c0.4-.4,1.7.1,2.2,0.3a17.6,17.6,0,0,1,3.4,1.7,6.1,6.1,0,0,0,1.6,1.2h0.7c1.1,0.2,2.4.1,3.4,0.4a22.3,22.3,0,0,1,5,2.4,30.8,30.8,0,0,1,10.8,11.9c0.4,0.8.6,1.5,1,2.4s1.6,3.4,2.4,5.1a22.8,22.8,0,0,0,2.5,4.6c0.5,0.7,2.6,1.1,3.5,1.5a24.4,24.4,0,0,1,2.4,1l3.5,2.4c0.6,0.4,2.3,1.3,2.4,2m-35.4-30.1-1.4.2h0.1a11.3,11.3,0,0,0,1.1,1.4l0.8,1.7h0.1a1.9,1.9,0,0,0,.7-1.7,7.9,7.9,0,0,1-.4-0.7,5,5,0,0,0-.9-0.8"/><path class="cls-8" d="M886.3,361H887v-3.5h-1.1l-0.9,2.4-1-2.4h-1V361h0.7v-2.7h0l1,2.7h0.5l1-2.7V361h0Zm-5.8,0h0.8v-2.9h1v-0.6h-2.8v0.6h1V361h0Z"/></g><path class="cls-9" d="M62.2,371.2c-1.8,0-2.4-1.1-2.4-2.7a14.3,14.3,0,0,1,.2-1.8c0.4-2.8,1.4-4.4,3.8-4.4s2.4,0.7,2.4,2v0.6h1.6s0-.6,0-0.7c0-1.9-1.2-3.7-4-3.7s-5.5,2.1-6.1,6.2a10.6,10.6,0,0,0-.1,1.6c0,2.4,1,4.7,4.4,4.7a5.5,5.5,0,0,0,5.1-2.8l-1.5-1a3.6,3.6,0,0,1-3.3,2h0Zm10.5-7.7c-3.1,0-4.5,1.6-4.9,4.8a8.3,8.3,0,0,0-.1,1.1c0,2,1,3.7,3.6,3.7s4.5-1.7,4.9-4.8a9.1,9.1,0,0,0,.1-1.1c0-2.1-1-3.6-3.6-3.6h0Zm1.3,4.8c-0.3,2.3-1.1,3-2.4,3s-1.6-.5-1.6-1.8a8.4,8.4,0,0,1,.1-1.2c0.3-2.3,1-3,2.4-3s1.7,0.5,1.7,1.8a7.8,7.8,0,0,1-.1,1.2h0Zm10.2-7.5-0.5,3.1a0.5,0.5,0,0,0,.1.4,3.7,3.7,0,0,0-2-.6c-2.8,0-4.4,1.3-4.9,4.8a6.9,6.9,0,0,0-.1,1.1c0,2.6,1.5,3.5,3.5,3.5a3.4,3.4,0,0,0,2.4-.5l0.2,1h1.6l1.9-12.9H84.1Zm-1.6,10.1a3.9,3.9,0,0,1-1.9.6,1.4,1.4,0,0,1-1.6-1.7,10.1,10.1,0,0,1,.1-1.3c0.4-2.7,1.2-3.1,2.4-3.1a3.6,3.6,0,0,1,1.8.4l-0.8,5.2h0Zm8.7-7.3c-3.1,0-4.5,1.5-5,4.8a9.3,9.3,0,0,0-.1,1.2c0,2.3,1.2,3.6,3.7,3.6a4.5,4.5,0,0,0,4.3-2.3l-1.7-.7a2.5,2.5,0,0,1-2.3,1.2c-1.2,0-1.7-.3-1.7-1.4a1.6,1.6,0,0,1,.1-0.5h6.1c0.1-.9.2-1.5,0.2-2s-0.6-3.8-3.4-3.8h0Zm1.2,4.1H88.7c0.4-.9,1-2.2,2.3-2.2a1.4,1.4,0,0,1,1.5,1.6,2.6,2.6,0,0,1-.1.6h0Zm8.7-4.3,0.2-1.7H96.6l-0.2,1.7h1.2l-1.3,8.6H95.1l-0.2,1.7h4.7l0.2-1.7H98.6l1.3-8.6h1.2Zm9.6,2.6,0.6-1.7h-1.6l-1.2.2a4.7,4.7,0,0,0-2.4-.7c-2.4,0-4.5,1.2-4.5,3.8a2.8,2.8,0,0,0,.6,1.7,1.6,1.6,0,0,0-.9,1.3,1.3,1.3,0,0,0,.3.8,3.2,3.2,0,0,0-1.6,2.8c0,2.3,2.4,2.8,4.2,2.8s5-.5,5-3.4c0-1-.6-1.8-2.4-2.1l-3.2-.6c-0.4-.1-0.5-0.2-0.5-0.4a0.4,0.4,0,0,1,.4-0.4h0.2l1.5,0.2c2.3,0,4.4-1,4.4-3.6a2.4,2.4,0,0,0-.2-1l0.8,0.4h0.6Zm-4.6,7c0.6,0.1.9,0.4,0.9,0.8s-1.5,1.5-2.5,1.5-2.2-.4-2.2-1.2a2.1,2.1,0,0,1,.7-1.6Zm-0.7-4.4c-1,0-1.5-.4-1.5-1.2a1.8,1.8,0,0,1,2-2c1,0,1.5.4,1.5,1.2A1.8,1.8,0,0,1,105.5,368.5Zm11.3-4.9a4.6,4.6,0,0,0-2.8,1.3l-0.2-.6h-1.8l-1.3,9.4h2.2l1-7.2a5,5,0,0,1,2.2-1,1,1,0,0,1,1.1,1.2,8.9,8.9,0,0,1-.1.9l-0.8,6h2.2l0.8-6.1c0-.3.1-0.8,0.1-1s-0.8-3-2.6-3h0Zm6.9,7.7V371l1-6.8h-3.7l-0.2,1.7h1.6a0.3,0.3,0,0,0-.2.3l-0.7,4.6a7.9,7.9,0,0,0,0,.9,1.8,1.8,0,0,0,1.9,2h1.1l0.3-1.7H124a0.6,0.6,0,0,1-.3-0.6h0Zm1.4-10.5h-2.2a1,1,0,0,1-.2-0.3l-0.3,2.4c0,0.2,0,.5.1,0.5h2.2a1.3,1.3,0,0,0,.2-0.7l0.3-1.9c0-.2,0,0-0.1,0h0Zm4.6,10.6a0.7,0.7,0,0,1-.8-0.7h0l0.7-4.6h2.6l0.8-1.7h-3.1l0.5-3.8-2.4.8-0.4,3h-1.4l-0.2,1.7h1.6c-0.2.9-.3,0.3-0.3,0.5l-0.6,4.1a2.5,2.5,0,0,0,0,.5c0,1.6,1.2,2.2,2.6,2.2a4.8,4.8,0,0,0,3.2-1.1l-1-1.3a2.7,2.7,0,0,1-1.6.5h0Zm8.2-7.8c-3.1,0-4.5,1.5-5,4.8a9.4,9.4,0,0,0-.1,1.2c0,2.3,1.2,3.6,3.7,3.6a4.5,4.5,0,0,0,4.3-2.3l-1.7-.7a2.5,2.5,0,0,1-2.3,1.2c-1.2,0-1.7-.3-1.7-1.4a1.6,1.6,0,0,1,.1-0.5h6.1c0.1-.9.2-1.5,0.2-2s-0.6-3.8-3.4-3.8h0Zm1.2,4.1h-3.7c0.4-.9,1-2.2,2.3-2.2a1.4,1.4,0,0,1,1.5,1.6,2.6,2.6,0,0,1-.1.6h0Zm8.5-4.1a3.5,3.5,0,0,0-2.3,1.2v-0.5h-1.8l-1.3,9.4h2.3l1-7.3a3.9,3.9,0,0,1,1.9-.7h1.2l0.3-1.9-1-.2h0ZM90.4,354c-5.1-2.2-9.8-7.8-9.9-13.5s3.9-11.5,8.9-15c-0.6,2.2-.9,4.3.6,6.3a5.9,5.9,0,0,0,6,2.3c5.3-1.2,5.5-6.9,2.4-10.3s-6.1-7.1-4.9-11.9a12.4,12.4,0,0,1,4-6.3c-1.4,3.8,2.7,7.6,5.4,9.4,4.7,3.2,9.9,5.7,14.2,9.5s7.9,9.4,7.2,15.7S118.1,351.6,112,354c12.8-2.8,26-12.8,26.3-27,0.2-11.7-7.8-20.7-17.7-25.8l-0.5-.3a4.2,4.2,0,0,1,.4,1.7,6,6,0,0,0,.2-1.1,5.6,5.6,0,0,1-.2,1.4v-0.2a5.8,5.8,0,0,1-.7,1.8v-0.2a6.2,6.2,0,0,1-10,.6c-4.3-5.5.1-11.4,0.7-17.2s-3.8-14.3-9.4-18.5c3.1,5-1,11.7-4.3,15.4s-7,6.6-10.6,9.9a88,88,0,0,0-10.5,11.4c-6.2,8.3-10,18.7-7.2,29S80.3,351.7,90.4,354h0Z"/><g class="cls-10"><path class="cls-11" d="M384.3,307.1h1v19.8h-1V307.1Zm15.9-.5A10.4,10.4,0,1,0,410.7,317a10.2,10.2,0,0,0-10.4-10.4h0Zm0,19.8a9.4,9.4,0,1,1,9.4-9.4A9.2,9.2,0,0,1,400.2,326.4Zm30.2-17.8a9.9,9.9,0,0,0-6.3-2c-3.1,0-6.6,1.5-7.9,4.3h-0.1v-3.8h-1v19.8h1V315.5c0-5,3.1-7.9,8-7.9a7.9,7.9,0,0,1,5.6,1.9c1.5,1.3,2.4,3.6,2.4,7v10.5h1V316.4C433.4,312.9,432.4,310.2,430.5,308.6Zm8.7-1.5h1v19.8h-1V307.1Zm15.9,19.3a9.2,9.2,0,0,1-9.4-9.4,9.4,9.4,0,0,1,2.7-6.8,9.1,9.1,0,0,1,6.7-2.7,9,9,0,0,1,8.7,5.9H465a10.4,10.4,0,1,0-9.9,13.9,10.1,10.1,0,0,0,9.8-6.7h-1.2A9,9,0,0,1,455.1,326.4Z"/><circle class="cls-11" cx="384.8" cy="300.9" r="1.1"/><circle class="cls-11" cx="439.7" cy="300.9" r="1.1"/><circle class="cls-11" cx="345.1" cy="313.6" r="10.3"/><path class="cls-11" d="M366.2,296a3.6,3.6,0,0,0-5.9-2.7,25.4,25.4,0,1,0,5,5,3.5,3.5,0,0,0,.9-2.3h0Zm-21.1,42A24.5,24.5,0,1,1,359.7,294a3.6,3.6,0,0,0,5,5,24.5,24.5,0,0,1-19.6,39.1h0Z"/></g><g class="cls-12"><path class="cls-13" d="M1110.4,388.2a2.3,2.3,0,0,1-1.2-.3l-3.7-2.2c-0.5-.3-0.3-0.4-0.1-0.5l1.7-.8h0.3l2.8,1.7h0.3l11-6.4a0.3,0.3,0,0,0,.2-0.3V366.9a0.4,0.4,0,0,0-.2-0.3l-11-6.3h-0.3l-11,6.3a0.4,0.4,0,0,0-.2.3v12.7a0.3,0.3,0,0,0,.2.3l3,1.7c1.6,0.8,2.6-.1,2.6-1.1V367.9a0.3,0.3,0,0,1,.3-0.3h1.4a0.3,0.3,0,0,1,.3.3v12.5c0,2.2-1.2,3.4-3.3,3.4a4.7,4.7,0,0,1-2.5-.7l-2.9-1.7a2.3,2.3,0,0,1-1.2-2V366.9a2.3,2.3,0,0,1,1.2-2l11-6.4a2.4,2.4,0,0,1,2.3,0l11,6.4a2.3,2.3,0,0,1,1.2,2v12.7a2.3,2.3,0,0,1-1.2,2l-11,6.4A2.3,2.3,0,0,1,1110.4,388.2Z"/><path class="cls-13" d="M1113.8,379.5c-4.8,0-5.8-2.2-5.8-4.1a0.3,0.3,0,0,1,.3-0.3h1.4a0.3,0.3,0,0,1,.3.3c0.2,1.4.9,2.2,3.8,2.2s3.3-.5,3.3-1.8-0.3-1.2-3.9-1.6-4.9-1-4.9-3.4,1.9-3.5,5-3.5,5.3,1.2,5.5,3.8a0.3,0.3,0,0,1-.1.2h-1.7a0.3,0.3,0,0,1-.3-0.2c-0.3-1.5-1.2-2-3.4-2s-2.8.9-2.8,1.5,0.3,1,3.8,1.5,5,1.1,5,3.5S1117.3,379.5,1113.8,379.5Z"/><path class="cls-13" d="M1129.7,366.2a2.1,2.1,0,1,1-2.1-2.1A2.1,2.1,0,0,1,1129.7,366.2Zm-3.9,0a1.8,1.8,0,1,0,1.8-1.8A1.8,1.8,0,0,0,1125.8,366.2Zm1-1.2h0.8a0.7,0.7,0,0,1,.8.6,0.5,0.5,0,0,1-.4.6c0.3,0,.3.2,0.4,0.5a2.3,2.3,0,0,0,.1.6H1128v-0.8a0.2,0.2,0,0,0-.2-0.2h-0.4v1h-0.5V365Zm0.4,1h0.4a0.3,0.3,0,0,0,.4-0.3,0.3,0.3,0,0,0-.3-0.3h-0.4V366Z"/><path class="cls-14" d="M1076.4,338.5a1.4,1.4,0,0,0-.7-1.2l-11.7-6.7-0.6-.2h-0.1l-0.6.2-11.7,6.7a1.4,1.4,0,0,0-.7,1.2v18.1a0.7,0.7,0,0,0,.4.6,0.7,0.7,0,0,0,.7,0l6.9-4a1.4,1.4,0,0,0,.7-1.2v-8.4a1.4,1.4,0,0,1,.7-1.2l3-1.7,0.7-.2,0.7,0.2,3,1.7a1.4,1.4,0,0,1,.7,1.2V352a1.4,1.4,0,0,0,.7,1.2l6.9,4a0.7,0.7,0,0,0,.7,0,0.7,0.7,0,0,0,.4-0.6V338.5Z"/><path class="cls-14" d="M1132.5,313.7a0.7,0.7,0,0,0-1,.6v17.9a0.5,0.5,0,0,1-.2.4h-0.5l-2.9-1.7a1.4,1.4,0,0,0-1.4,0l-11.7,6.7a1.4,1.4,0,0,0-.7,1.2v13.5a1.4,1.4,0,0,0,.7,1.2l11.7,6.7a1.4,1.4,0,0,0,1.4,0l11.7-6.7a1.4,1.4,0,0,0,.7-1.2V318.8a1.4,1.4,0,0,0-.7-1.2Zm-1.1,34.3a0.4,0.4,0,0,1-.2.3l-4,2.3h-0.4l-4-2.3a0.4,0.4,0,0,1-.2-0.3v-4.6a0.4,0.4,0,0,1,.2-0.3l4-2.3h0.4l4,2.3a0.4,0.4,0,0,1,.2.3V348Z"/><path class="cls-14" d="M1171.4,343.2a1.4,1.4,0,0,0,.7-1.2v-3.3a1.4,1.4,0,0,0-.7-1.2l-11.6-6.7a1.4,1.4,0,0,0-1.4,0l-11.7,6.7a1.4,1.4,0,0,0-.7,1.2v13.5a1.4,1.4,0,0,0,.7,1.2l11.6,6.6a1.4,1.4,0,0,0,1.4,0l7-3.9a0.7,0.7,0,0,0,0-1.2l-11.7-6.7a0.7,0.7,0,0,1-.4-0.6v-4.2a0.7,0.7,0,0,1,.4-0.6l3.7-2.1a0.7,0.7,0,0,1,.7,0l3.7,2.1a0.7,0.7,0,0,1,.4.6v3.3a0.7,0.7,0,0,0,1.1.6Z"/><path class="cls-15" d="M1158.9,342.6h0.3l2.2,1.3v3.1l-2.2,1.3h-0.3l-2.2-1.3v-3.1Z"/><path id="_Clipping_Path_2" data-name="&lt;Clipping Path&gt;" class="cls-16" d="M1095.9,330.8a1.4,1.4,0,0,0-1.4,0l-11.6,6.7a1.4,1.4,0,0,0-.7,1.2v13.4a1.4,1.4,0,0,0,.7,1.2l11.6,6.7a1.4,1.4,0,0,0,1.4,0l11.6-6.7a1.4,1.4,0,0,0,.7-1.2V338.7a1.4,1.4,0,0,0-.7-1.2Z"/><g class="cls-17"><path class="cls-18" d="M1094.5,330.8l-11.2,6.7a1.2,1.2,0,0,0-.3,1.2v13.4a1.3,1.3,0,0,0-.1.9l12.8-22.4A2.1,2.1,0,0,0,1094.5,330.8Z"/><path class="cls-18" d="M1095.6,360.2h0.3l11.5-6.7a1.3,1.3,0,0,0,.6-1.2V338.7a1.3,1.3,0,0,0-.3-1Z"/><path class="cls-19" d="M1107.5,337.5l-11.6-6.7h-0.4L1082.4,353l0.4,0.3,11.7,6.7a1.4,1.4,0,0,0,1.1.1l12.3-22.4Z"/><path class="cls-18" d="M1108,352.2V338.7a1.3,1.3,0,0,0-.6-1.2l-11.6-6.7-0.4-.2,12.7,21.8A1.4,1.4,0,0,0,1108,352.2Z"/><path class="cls-18" d="M1083.3,337.5a1.2,1.2,0,0,0-.3,1.2v13.4a1.2,1.2,0,0,0,.3,1.2l11.4,6.7a1.1,1.1,0,0,0,.8.2l-12.3-22.8h0.1Z"/><polygon class="cls-20" points="1094.1 328.4 1093.9 328.5 1094.1 328.5 1094.1 328.4"/><path class="cls-21" d="M1107.5,353.4a1.5,1.5,0,0,0,.7-0.9l-12.8-21.8a1.4,1.4,0,0,0-1,.2l-11.6,6.7,12.5,22.8,0.5-.2Z"/><polygon class="cls-22" points="1108.6 353.2 1108.5 353 1108.5 353.2 1108.6 353.2"/><path class="cls-23" d="M1107.5,353.4l-11.6,6.7-0.5.2v0.4l12.6-7.5v-0.7A1.2,1.2,0,0,1,1107.5,353.4Z"/><path class="cls-24" d="M1107.5,353.4l-11.6,6.7-0.5.2v0.4l12.6-7.5v-0.7A1.2,1.2,0,0,1,1107.5,353.4Z"/></g></g><g class="cls-12"><path class="cls-25" d="M210.2,470.2h58.1v56.5H210.2V470.2Z"/><path class="cls-26" d="M210.2,470.2h58.1v56.5H210.2V470.2Zm-2.6,59.2h63.4V467.5H207.5v61.8Zm42.7-36.5c-2.1,0-2.8,1.1-2.8,1.9s0.5,1.6,3.3,3.1,5.4,3.9,5.4,6.8-3.2,6.5-7.6,6.5a11.5,11.5,0,0,1-5.4-1.1,0.4,0.4,0,0,1-.2-0.4v-3.9c0-.3.1-0.3,0.3-0.2a9.8,9.8,0,0,0,5.3,1.6c2.1,0,3-.9,3-2.1s-0.6-1.8-3.3-3.2-5.3-3.6-5.3-6.7,2.7-6.2,7.3-6.2a12.1,12.1,0,0,1,4.7.7,0.6,0.6,0,0,1,.3.5v3.6a0.3,0.3,0,0,1-.4.3,8.9,8.9,0,0,0-4.6-1.2h0ZM227.5,496h2.1c3.1,0,6-1.1,6-5.3s-2.1-5-5.6-5h-2.5V496Zm-4.7-14a0.6,0.6,0,0,1,.6-0.3h6.8c7.3,0,10.2,4,10.2,9.1,0,6.7-4.9,9.6-10.8,9.6h-2.1v10.1a0.3,0.3,0,0,1-.3.3h-4a0.3,0.3,0,0,1-.3-0.3V482h0Z"/></g><path class="cls-27" d="M716.5,91.8V75.6h20.2V74.7H716.5V59.9h21.5V59H715.5V92.7h22.6V91.8H716.5Zm39.9-23.4-8.4,11-8.2-11h-1.2l8.8,11.7-9.7,12.6h1.1l9.1-11.9,9.2,11.9h1.2l-9.7-12.6,8.9-11.7h-1.1Zm4.8,32.6V85.9h0.1a9.7,9.7,0,0,0,3.4,5.3,9.9,9.9,0,0,0,6.4,2,9.2,9.2,0,0,0,7.7-3.8,12.9,12.9,0,0,0,2-4.1,18,18,0,0,0,0-9.9,12.1,12.1,0,0,0-2.1-4,9.5,9.5,0,0,0-3.3-2.6,9.6,9.6,0,0,0-4.3-.9,10.5,10.5,0,0,0-3.4.5,9.2,9.2,0,0,0-2.8,1.5,10.4,10.4,0,0,0-2.1,2.3,10.8,10.8,0,0,0-1.4,3h-0.1V68.4h-0.9v32.6h0.9Zm9.8-8.7a9.1,9.1,0,0,1-7.1-3q-2.7-3-2.7-8.8a15,15,0,0,1,.7-4.5,11.6,11.6,0,0,1,1.9-3.7,9.2,9.2,0,0,1,3.1-2.6,9,9,0,0,1,4.2-.9,8.7,8.7,0,0,1,4.1.9,8.4,8.4,0,0,1,2.9,2.6,12,12,0,0,1,1.7,3.7,16.5,16.5,0,0,1,.6,4.5,16.8,16.8,0,0,1-.5,4.2,12.1,12.1,0,0,1-1.7,3.8,9.1,9.1,0,0,1-2.9,2.7,8.2,8.2,0,0,1-4.3,1.1h0Zm15.6,0.4V79a13.4,13.4,0,0,1,.6-3.9,9.5,9.5,0,0,1,1.7-3.3,8.2,8.2,0,0,1,3-2.3,9.1,9.1,0,0,1,4.3-.7V67.9a11.7,11.7,0,0,0-3.8.5,9.2,9.2,0,0,0-2.8,1.4,7.2,7.2,0,0,0-1.9,2.1,9.4,9.4,0,0,0-1,2.6h-0.1v-6h-0.9V92.7h0.9Zm10.8-12h20.3a16.8,16.8,0,0,0-.5-4.8,12,12,0,0,0-1.9-4.1,9.6,9.6,0,0,0-3.4-2.9,10.3,10.3,0,0,0-4.9-1.1,9.9,9.9,0,0,0-7.4,3.3,12.6,12.6,0,0,0-2.4,4,15.1,15.1,0,0,0-.9,5.4,19.8,19.8,0,0,0,.6,5,11.8,11.8,0,0,0,1.9,4.1,8.5,8.5,0,0,0,3.3,2.7,10.9,10.9,0,0,0,4.8.9,10.6,10.6,0,0,0,7-2.3,9.7,9.7,0,0,0,3.4-6.6h-0.9a9.1,9.1,0,0,1-3.1,6,9.9,9.9,0,0,1-6.4,2,9.8,9.8,0,0,1-4.4-.9,8,8,0,0,1-2.9-2.5,10.7,10.7,0,0,1-1.7-3.7,19.7,19.7,0,0,1-.6-4.6h0Zm19.4-.9H797.3a14.6,14.6,0,0,1,.9-4.6,11.4,11.4,0,0,1,2.1-3.5,8.8,8.8,0,0,1,3-2.2,9.1,9.1,0,0,1,3.7-.8,9.4,9.4,0,0,1,4.2.9,8.6,8.6,0,0,1,3,2.4,10.5,10.5,0,0,1,1.8,3.5,14.4,14.4,0,0,1,.6,4.2h0Zm20.6-4.2h0.9q0-4.1-2.4-5.9a10.2,10.2,0,0,0-6.4-1.8,11.3,11.3,0,0,0-3.8.6,7.7,7.7,0,0,0-2.6,1.5,5.3,5.3,0,0,0-1.4,2,5.7,5.7,0,0,0-.4,2.1,6.1,6.1,0,0,0,.7,3.2,4.7,4.7,0,0,0,2.2,1.8l2.4,0.9,3.1,0.8,3.1,0.8a11.1,11.1,0,0,1,2.7,1,5.8,5.8,0,0,1,1.9,1.6,4.3,4.3,0,0,1,.7,2.6,4.6,4.6,0,0,1-.7,2.6,5.9,5.9,0,0,1-1.9,1.8,8.3,8.3,0,0,1-2.5,1l-2.7.3q-4.3,0-6.6-1.9t-2.3-6h-0.9q0,4.6,2.5,6.7t7.4,2.1a14.4,14.4,0,0,0,3.1-.4,8.7,8.7,0,0,0,2.8-1.2,6.4,6.4,0,0,0,2-2.1,5.9,5.9,0,0,0,.8-3.1,5.3,5.3,0,0,0-.7-2.8,5.8,5.8,0,0,0-1.8-1.8,9.5,9.5,0,0,0-2.5-1.1l-2.8-.8-3.5-.9-2.8-.9a4.7,4.7,0,0,1-2-1.5,4.5,4.5,0,0,1-.7-2.8,6.5,6.5,0,0,1,.2-1.2,4.2,4.2,0,0,1,.9-1.7,6,6,0,0,1,2.2-1.6,9.7,9.7,0,0,1,4-.7,12.6,12.6,0,0,1,3.2.4,6.6,6.6,0,0,1,2.5,1.2,5.5,5.5,0,0,1,1.6,2.1,7.7,7.7,0,0,1,.6,3.1h0Zm21.9,0h0.9q0-4.1-2.4-5.9a10.2,10.2,0,0,0-6.4-1.8,11.3,11.3,0,0,0-3.8.6,7.7,7.7,0,0,0-2.6,1.5,5.3,5.3,0,0,0-1.4,2,5.7,5.7,0,0,0-.4,2.1,6.1,6.1,0,0,0,.7,3.2A4.7,4.7,0,0,0,846,79l2.4,0.9,3.1,0.8,3.1,0.8a11.1,11.1,0,0,1,2.7,1,5.8,5.8,0,0,1,1.9,1.6,4.3,4.3,0,0,1,.7,2.6,4.6,4.6,0,0,1-.7,2.6,5.9,5.9,0,0,1-1.9,1.8,8.3,8.3,0,0,1-2.5,1l-2.7.3q-4.3,0-6.6-1.9t-2.3-6h-0.9q0,4.6,2.5,6.7t7.4,2.1a14.4,14.4,0,0,0,3.1-.4,8.7,8.7,0,0,0,2.8-1.2,6.4,6.4,0,0,0,2-2.1,5.9,5.9,0,0,0,.8-3.1,5.2,5.2,0,0,0-.7-2.8,5.7,5.7,0,0,0-1.8-1.8,9.5,9.5,0,0,0-2.5-1.1L853,80l-3.5-.9-2.8-.9a4.7,4.7,0,0,1-2-1.5A4.5,4.5,0,0,1,844,74a6.5,6.5,0,0,1,.2-1.2,4.2,4.2,0,0,1,.9-1.7,6.1,6.1,0,0,1,2.2-1.6,9.7,9.7,0,0,1,4-.7,12.6,12.6,0,0,1,3.2.4,6.6,6.6,0,0,1,2.5,1.2,5.5,5.5,0,0,1,1.6,2.1,7.7,7.7,0,0,1,.6,3.1h0Z"/><g class="cls-28"><path class="cls-29" d="M286.6,124.5a0.8,0.8,0,0,0-.4.6c0,1.4-.1,5.1-0.1,7.7a0.3,0.3,0,0,0,.2.2h2.9a7.5,7.5,0,0,0,2.9-.4,3.7,3.7,0,0,0,1.9-3.5c0-3.4-2.4-4.7-5.9-4.7h-1.5Zm9.1,15.7c0-3.5-2.6-5.4-7.2-5.4h-2a0.3,0.3,0,0,0-.2.2c0,2.5,0,6.5.1,8a2.7,2.7,0,0,0,1.2,1.9,8,8,0,0,0,3.1.4c2.8,0,5.2-1.5,5.2-5.2h0Zm-16.2-17.6h11.2c3.1,0,7.3,1.1,7.3,5.7a5.5,5.5,0,0,1-3.7,4.9c-0.1,0-.1.1,0,0.1,3,0.7,5.6,2.6,5.6,6s-2.1,5.5-5.2,6.9a16.8,16.8,0,0,1-6.5,1.1c-1.8,0-6.6-.2-9.3-0.1-0.3-.1.2-1.4,0.5-1.6a6.6,6.6,0,0,0,1.8-.3c0.9-.2,1.1-0.5,1.2-2s0.1-5.6.1-8.7,0-7.1,0-8.5a1.4,1.4,0,0,0-1.2-1.7l-2.4-.4a2.5,2.5,0,0,1,.6-1.5h0Zm-20.3,21.9a7.1,7.1,0,0,0,4,.9,7.8,7.8,0,0,0,5.6-2c1.9-1.7,3.2-4.3,3.2-8.4s-1.5-7.2-4.6-9.1a12.4,12.4,0,0,0-6.6-1.5,5.3,5.3,0,0,0-2,.2,1,1,0,0,0-.4.6c-0.1.7-.1,6.1-0.1,9.3s0,7.8.1,8.4a2.2,2.2,0,0,0,.8,1.7h0Zm-8-21.9h12.4a13,13,0,0,1,8.6,2.7,11.4,11.4,0,0,1,3.9,9c0,5.3-2.4,8.4-4.9,10.1s-5.6,2.8-10.1,2.8h-10a1.9,1.9,0,0,1,.6-1.6l1.6-.3c0.7-.3.9-0.7,1-2s0.1-5.3.1-8.6,0-7,0-8.4a1.7,1.7,0,0,0-1.7-1.8l-2.2-.4a3.2,3.2,0,0,1,.7-1.5h0Z"/><path class="cls-30" d="M208.6,145.8a7.1,7.1,0,0,1-2.3-.6,1.1,1.1,0,0,1-.3-0.6c-0.1-1.2-.1-4.7-0.1-7.1a8.3,8.3,0,0,0-1.1-4.7,4.8,4.8,0,0,0-4.1-2.1c-1.5,0-3.6,1.1-5.3,2.5,0,0-.3.3-0.3-0.1s0.1-1.2.1-1.7a0.9,0.9,0,0,0-.2-0.7,23.5,23.5,0,0,1-5.4,1.4c-0.8.2-1.1,1-.2,1.3h0a7.8,7.8,0,0,1,2.1.9,1.1,1.1,0,0,1,.3,1c0,2.6,0,6.7-.1,8.9a1.1,1.1,0,0,1-.9,1.3h0.1l-1.5.3a2.1,2.1,0,0,0,0,1.6h8.2a2.3,2.3,0,0,0,.2-1.6l-1.6-.2a1,1,0,0,1-.8-1.2c-0.1-1.9-.1-5.8-0.1-8.5a1.7,1.7,0,0,1,.4-1.3,5.3,5.3,0,0,1,3.3-1.2,3.6,3.6,0,0,1,2.4.8,3.5,3.5,0,0,1,1.1,2.2c0.2,1.5.1,4.5,0.1,7.1s-0.1,1.8-.6,1.9l-1.6.3a2.1,2.1,0,0,0,0,1.6h8.1a2.5,2.5,0,0,0,.1-1.5h0Zm9.7-13.4c-1.9,0-3,1.4-3,3.7s1,4.9,3.9,4.9a2.7,2.7,0,0,0,1.8-.7,4.7,4.7,0,0,0,1.1-3.2c0-2.9-1.4-4.7-3.8-4.7h0Zm-0.2,15.5a3,3,0,0,0-1.5.4c-1.5.9-2.1,1.9-2.1,3a3.1,3.1,0,0,0,1.2,2.5,6.2,6.2,0,0,0,4.2,1.3c3.6,0,5.2-1.9,5.2-3.8a2.7,2.7,0,0,0-2-2.7,14.2,14.2,0,0,0-4.9-.6h0Zm0.2,9.1a7.8,7.8,0,0,1-5-1.5,4.6,4.6,0,0,1-1.9-3.5,2.7,2.7,0,0,1,.7-1.8,18.6,18.6,0,0,1,3.2-2.6h0.1v-0.2a3.3,3.3,0,0,1-2.3-2.2h0a0.5,0.5,0,0,1,.2-0.6l1-.6,1.6-1.1a0.3,0.3,0,0,0,.1-0.2v-0.2c-2.5-.8-3.7-2.6-3.7-5.4a5.3,5.3,0,0,1,2.2-4.4,10.3,10.3,0,0,1,5.1-1.7h0.1a10.8,10.8,0,0,1,3.9.8,6.5,6.5,0,0,0,2.3.4,3,3,0,0,0,2.5-.9,1.9,1.9,0,0,1,.1.7,2.7,2.7,0,0,1-.5,1.6,2,2,0,0,1-1.5.7h-1.2a0.3,0.3,0,0,0,0,.2h0a13,13,0,0,1,.2,1.5A5.7,5.7,0,0,1,223,141a8.1,8.1,0,0,1-4.1,1.6h-1a1.3,1.3,0,0,0-1,1c0,0.5.3,1.2,1.8,1.3h1a30.8,30.8,0,0,1,5.7.7,3.9,3.9,0,0,1,2.6,3.8c0,2.6-1.9,5-5,6.5a11.3,11.3,0,0,1-4.7,1h0Zm20-24.5a3.3,3.3,0,0,0-1.9.5c-1.4.8-2.1,2.5-2.1,5,0,4.6,2.3,7.8,5.6,7.8a3.6,3.6,0,0,0,2.4-.8c1-.8,1.5-2.5,1.5-4.9,0-4.6-2.3-7.6-5.6-7.6h0Zm0.6,15c-6,0-8.1-4.4-8.1-8.5a7.6,7.6,0,0,1,3.5-6.7,10.6,10.6,0,0,1,5.4-1.6c4.6,0,7.8,3.3,7.8,8a8.2,8.2,0,0,1-3.7,7.3,9.7,9.7,0,0,1-4.8,1.5h0Zm-62.7-15a3.3,3.3,0,0,0-1.9.5c-1.4.8-2.1,2.5-2.1,5,0,4.6,2.3,7.8,5.6,7.8a3.6,3.6,0,0,0,2.4-.8c1-.8,1.5-2.5,1.5-4.9,0-4.6-2.3-7.6-5.6-7.6h0Zm0.6,15c-6,0-8.1-4.4-8.1-8.5a7.6,7.6,0,0,1,3.5-6.7,10.6,10.6,0,0,1,5.4-1.6c4.6,0,7.8,3.3,7.8,8a8.2,8.2,0,0,1-3.7,7.3,9.5,9.5,0,0,1-4.8,1.5h0Zm-40.2-.4a1.5,1.5,0,0,1-.1-0.8,1.2,1.2,0,0,1,.1-0.5l1.5-.3a1.3,1.3,0,0,0,1-1.4c0.1-2.1.1-6.1,0.1-8.9h0a1.1,1.1,0,0,0-.4-1,7.9,7.9,0,0,0-2.1-.9,0.5,0.5,0,0,1-.5-0.5,0.7,0.7,0,0,1,.7-0.5,25.7,25.7,0,0,0,5.4-1.4,0.9,0.9,0,0,1,.2.6v0.4c0,0.4-.1.8-0.1,1.3a0.3,0.3,0,0,0,.3.2h0.2a9.9,9.9,0,0,1,5.3-2.4,4.6,4.6,0,0,1,4.1,2.5H153c2.1-1.6,4.1-2.5,5.5-2.5,3.3,0,5.2,2.4,5.2,6.5,0,1.2,0,2.7,0,4s0,2.4,0,3.2a1.1,1.1,0,0,0,.6.8,7.5,7.5,0,0,0,2,.5h0a2.8,2.8,0,0,1-.2,1.3h-7.9a3.4,3.4,0,0,1,0-1.3l1.3-.3c0.7-.2.9-0.5,0.9-1.4s0.1-6.4-.1-7.7a3.5,3.5,0,0,0-3.6-3.1,6.2,6.2,0,0,0-3.6,1.4,0.6,0.6,0,0,0-.1.4h0a16.2,16.2,0,0,1,.1,2.9v2.3c0,1.6,0,3.1,0,4.2a1,1,0,0,0,.8,1.1h0.5l1.1,0.2a1.9,1.9,0,0,1,0,1,0.7,0.7,0,0,1-.1.4h-8a1.9,1.9,0,0,1-.1-0.7,1.1,1.1,0,0,1,.1-0.6H148l1.1-.2a1.1,1.1,0,0,0,.8-1.3,61,61,0,0,0,0-8.1c-0.4-2-1.6-3.1-3.4-3.1a6.5,6.5,0,0,0-3.6,1.4,1.1,1.1,0,0,0-.3.8v2.1c0,2.5,0,5.7,0,7.1a1.1,1.1,0,0,0,1,1.1H145a2.9,2.9,0,0,1-.1,1.3h-8.1Z"/><path class="cls-6" d="M118.3,155.7l-1.4-.5s0.2-7.3-2.5-7.9c-1.8-2,.3-86.5,6.6-0.3,0,0-2.2,1.1-2.6,3a27.1,27.1,0,0,0-.1,5.7h0Z"/><path class="cls-31" d="M118.3,155.7l-1.4-.5s0.2-7.3-2.5-7.9c-1.8-2,.3-86.5,6.6-0.3,0,0-2.2,1.1-2.6,3a27.1,27.1,0,0,0-.1,5.7h0Z"/><path class="cls-6" d="M119.1,148.6s12.6-8.3,9.7-25.6c-2.8-12.6-9.6-16.7-10.3-18.2a17.7,17.7,0,0,1-1.6-3.1l0.5,34.9s-1.1,10.7,1.7,12"/><path class="cls-32" d="M119.1,148.6s12.6-8.3,9.7-25.6c-2.8-12.6-9.6-16.7-10.3-18.2a17.7,17.7,0,0,1-1.6-3.1l0.5,34.9s-1.1,10.7,1.7,12"/><path class="cls-6" d="M116.1,149.1S104.3,141,105,126.7s9-21.2,10.7-22.5a3.3,3.3,0,0,0,1.2-2.7c0.7,1.6.6,23.7,0.7,26.3C117.8,137.8,117,147.2,116.1,149.1Z"/><path class="cls-33" d="M116.1,149.1S104.3,141,105,126.7s9-21.2,10.7-22.5a3.3,3.3,0,0,0,1.2-2.7c0.7,1.6.6,23.7,0.7,26.3C117.8,137.8,117,147.2,116.1,149.1Z"/></g><g class="cls-12"><path class="cls-34" d="M505.1,89.5a5,5,0,0,1,5,5v21.5a5,5,0,0,1-10,0V94.6a5,5,0,0,1,5-5h0Z"/><path class="cls-34" d="M493.6,63.7c0,0.2,0,.4,0,0.6V96.9a6.3,6.3,0,0,0,6.2,6.3H533a6.3,6.3,0,0,0,6.2-6.3V64.2c0-.2,0-0.4,0-0.6H493.6Z"/><path class="cls-34" d="M527.7,89.5a5,5,0,0,1,5,5v21.5a5,5,0,0,1-10,0V94.6a5,5,0,0,1,5-5h0Zm-42.2-23a5,5,0,0,1,5,5V93.1a5,5,0,1,1-10,0V71.6a5,5,0,0,1,5-5h0Zm61.7,0a5,5,0,0,1,5,5V93.1a5,5,0,0,1-10,0V71.6a5,5,0,0,1,5-5h0Zm-53.5-5c0.1-10,8.9-18.2,20.1-19.3h5c11.2,1.1,20,9.3,20.1,19.3H493.8Z"/><path class="cls-35" d="M495.5,41.3l5.3,9.2m36.5-9.2L532,50.4"/><path class="cls-6" d="M509.6,52.6a2.6,2.6,0,0,1-5.2,0h0a2.6,2.6,0,0,1,5.2,0h0Zm19.4,0a2.6,2.6,0,0,1-5.2,0h0a2.6,2.6,0,0,1,5.2,0h0Z"/></g><path class="cls-36" d="M605.7,228.7a1.1,1.1,0,1,1-2.2,0,1.1,1.1,0,0,1,1.1-1.2A1.1,1.1,0,0,1,605.7,228.7ZM604,264.4V237.1h1.1v27.3H604Zm38.4-19.5c0,13.8-7.6,20-16,20s-15.5-6.8-15.5-19.5,7.2-20,16.1-20S642.4,232.4,642.4,244.9Zm-30.4.3c0,10.4,5.1,18.6,14.4,18.6s14.8-8.4,14.8-18.7-4.3-18.3-14.2-18.3-15,8.2-15,18.4h0Zm34.5,16.2a15.8,15.8,0,0,0,7.9,2.5c5.3,0,10-3.7,10-9.2s-3.1-7.7-8.5-10-9-4.2-9-9.6,4.4-9.6,10.5-9.6a12.6,12.6,0,0,1,6.8,1.7l-0.5,1a13,13,0,0,0-6.4-1.6c-6.4,0-9.2,4.8-9.2,8.4s3.8,6.5,8.7,8.9,8.7,5.2,8.7,10.6-4.1,10.4-11.4,10.4a15.2,15.2,0,0,1-8.2-2.3l0.5-1.1h0Z"/><g class="cls-12"><path class="cls-37" d="M1074.6,136.5l1.7-3.6h0.2l1.7,3.6a0.1,0.1,0,0,1-.1.1h-0.6l-0.3-.6h-1.6l-0.3.6h-0.6A0.1,0.1,0,0,1,1074.6,136.5Zm2.3-1.1-0.5-1.2h0l-0.5,1.2h1.1Z"/><path class="cls-37" d="M1079.2,133h1.4a1.2,1.2,0,1,1,0,2.4h-0.7v1.3h-0.7V133Zm1.3,1.6a0.6,0.6,0,0,0,.6-0.6,0.5,0.5,0,0,0-.6-0.5h-0.6v1.1h0.6Z"/><path class="cls-37" d="M1082.2,136.5l1.7-3.6h0.2l1.7,3.6a0.1,0.1,0,0,1-.1.1h-0.6l-0.3-.6h-1.6l-0.3.6h-0.6A0.1,0.1,0,0,1,1082.2,136.5Zm2.3-1.1-0.5-1.2h0l-0.5,1.2h1.1Z"/><path class="cls-37" d="M1088.4,132.9a1.8,1.8,0,0,1,1.3.5,0.1,0.1,0,0,1,0,.2l-0.3.3h-0.1a1.3,1.3,0,0,0-.8-0.3,1.2,1.2,0,0,0,0,2.5,1.3,1.3,0,0,0,.8-0.3h0.1l0.3,0.3a0.1,0.1,0,0,1,0,.1,1.8,1.8,0,0,1-1.3.5A1.9,1.9,0,1,1,1088.4,132.9Z"/><path class="cls-37" d="M1091,133h0.7v1.4h1.7V133h0.7v3.5h-0.7v-1.5h-1.7v1.5H1091V133Z"/><path class="cls-37" d="M1095.6,133h2.4v0.4h-1.7v0.9h1.4V135h-1.4V136h1.7v0.4h-2.4V133Z"/><path class="cls-38" d="M1205.6,141.1h-2a0.2,0.2,0,0,0-.2.2v0.4a0.2,0.2,0,0,0,.2.2h0.6v2.5l0.2,0.2h0.4l0.2-.2v-2.5h0.6a0.2,0.2,0,0,0,.2-0.2v-0.4A0.2,0.2,0,0,0,1205.6,141.1Z"/><path class="cls-38" d="M1210,144.3l-0.5-3.1-0.2-.2H1209l-0.9,2-0.9-2h-0.4l-0.5,3.1v0.2h0.6l0.2-.2,0.2-1.4,0.7,1.5h0.4l0.7-1.5,0.2,1.5h0.7A0.2,0.2,0,0,0,1210,144.3Z"/><path class="cls-38" d="M1088.2,154l-0.6-.2-0.6.2a5.5,5.5,0,0,1-3.5,1.3,5.3,5.3,0,0,1,0-10.6,5.4,5.4,0,0,1,3.5,1.3l0.6,0.2a0.8,0.8,0,0,0,.6-0.3l1.5-1.5a0.8,0.8,0,0,0,0-1.2,8.7,8.7,0,0,0-6.2-2.4,9.2,9.2,0,0,0-9.2,9.2,9.1,9.1,0,0,0,2.7,6.5,9.2,9.2,0,0,0,6.5,2.7,8.8,8.8,0,0,0,6.2-2.5,0.9,0.9,0,0,0,.3-0.7,0.8,0.8,0,0,0-.2-0.5Z"/><path class="cls-38" d="M1101,140.8a9.1,9.1,0,0,0-6.5,2.7,9.2,9.2,0,0,0-2.7,6.5,9.2,9.2,0,1,0,18.4,0A9.2,9.2,0,0,0,1101,140.8Zm0,14.5a5.3,5.3,0,0,1,0-10.5,5.3,5.3,0,0,1,5.3,5.3A5.2,5.2,0,0,1,1101,155.3Z"/><path class="cls-38" d="M1128.7,146.7a5.7,5.7,0,0,0-5.7-5.7h-8a0.8,0.8,0,0,0-.8.8v16.2a0.8,0.8,0,0,0,.8.8h2.3a0.9,0.9,0,0,0,.8-0.8v-5.9h2.9l3.3,6.3a0.8,0.8,0,0,0,.7.4h2.6a0.8,0.8,0,0,0,.7-0.4,0.9,0.9,0,0,0,0-.9l-3.2-5.9A5.7,5.7,0,0,0,1128.7,146.7Zm-4,0a2.1,2.1,0,0,1-2,2.1h-4.6v-4.1h4.6A2,2,0,0,1,1124.7,146.8Z"/><path class="cls-38" d="M1139.5,141.1h-5.8a0.8,0.8,0,0,0-.8.8v16.2a0.8,0.8,0,0,0,.8.8h5.8A9,9,0,1,0,1139.5,141.1Zm4.8,8.9a5,5,0,0,1-5.1,5.2h-2.4V144.8h2.4A5,5,0,0,1,1144.4,150Z"/><path class="cls-38" d="M1160.6,140.8a9.1,9.1,0,0,0-6.5,2.7,9.2,9.2,0,0,0-2.7,6.5,9.2,9.2,0,1,0,18.4,0A9.2,9.2,0,0,0,1160.6,140.8Zm0,14.5a5.3,5.3,0,0,1,0-10.5,5.3,5.3,0,0,1,5.3,5.3A5.2,5.2,0,0,1,1160.6,155.3Z"/><path class="cls-38" d="M1187.7,141.4a0.8,0.8,0,0,0-.7-0.4h-2.5a0.8,0.8,0,0,0-.8.5l-4.4,9.9-4.4-9.9a0.8,0.8,0,0,0-.8-0.5h-2.5a0.8,0.8,0,0,0-.8,1.2l7.6,16.5a0.8,0.8,0,0,0,.8.5h0.2a0.8,0.8,0,0,0,.8-0.5l7.6-16.5A0.8,0.8,0,0,0,1187.7,141.4Z"/><path class="cls-38" d="M1202.7,157.8l-7.6-16.5a0.8,0.8,0,0,0-.8-0.5h-0.2a0.8,0.8,0,0,0-.8.5l-7.6,16.5a0.8,0.8,0,0,0,.8,1.2h2.1a1.1,1.1,0,0,0,1.1-.7l1.1-2.4h6.8l1.1,2.4a1.1,1.1,0,0,0,1.1.7h2.1A0.8,0.8,0,0,0,1202.7,157.8Zm-6.6-5.4h-3.7l1.9-4.2Z"/><path class="cls-39" d="M1065.6,163.8H1058l0.5-6.4h-3.7l-0.5,6.4h-15.7l-0.5-6.4h-3.7l0.5,6.4h-7.6l-4.3-27.7,10.7-17h25.6l10.7,17Zm-8.5-36.2h-6.8l0.5,3.2h-8.5l0.5-3.2h-6.8l-4.3,8.5,2.1,17h25.6l2.1-17-4.3-8.5h0Zm-3.7,19.9c-0.6,0-1.1-1.8-1.1-4s0.5-4,1.1-4,1.1,1.8,1.1,4S1053.9,147.5,1053.3,147.5Zm-13.4.3c-0.6,0-1.1-1.8-1.1-4s0.5-4,1.1-4,1.1,1.8,1.1,4S1040.5,147.8,1039.9,147.8Z"/></g><g id="Layer_2" data-name="Layer 2"><path class="cls-40" d="M525.8,487.8l3.9,50.3a1.9,1.9,0,0,0,1.3,1.6l20.7,6.6a1.9,1.9,0,0,0,1.1,0l20.7-6.6a1.9,1.9,0,0,0,1.3-1.6l3.9-50.3a1.9,1.9,0,0,0-1.9-2H527.6A1.9,1.9,0,0,0,525.8,487.8Zm42.9,15.6H543l0.8,7.1h24.3l-1.6,20.3-14.3,4.5L538,530.8l-0.8-10.6h7.5v5.2l7.8,2.1,7.8-2.1,0.6-8.3H536.9l-1.6-20.3h33.8Z"/></g></g></svg>