<svg xmlns="http://www.w3.org/2000/svg" xmlns:xlink="http://www.w3.org/1999/xlink" viewBox="0 0 778.21 661.88"><defs><style>.a{fill:none;}.b{fill:url(#a);}.c{fill:url(#b);}.d{fill:url(#c);}.e{fill:url(#d);}.f{fill:url(#e);}.g{fill:url(#f);}.h{font-size:166.04px;font-family:Multicolore ;}.h,.j{fill:#00aeef;}.i,.j{font-size:36px;font-family:Open Sans;font-weight:700;}</style><linearGradient id="a" x1="4004.22" y1="-6774.13" x2="3651.35" y2="-7193.42" gradientTransform="matrix(1, 0, 0, -1, 0, -6647.56)" gradientUnits="userSpaceOnUse"><stop offset="0" stop-color="#dcf0f5"/><stop offset="0.47" stop-color="#30bbed"/><stop offset="1" stop-color="#3970b7"/></linearGradient><linearGradient id="b" x1="3532.27" y1="-7233.01" x2="3956.12" y2="-7097.15" gradientTransform="matrix(1, 0, 0, -1, 0, -6647.56)" gradientUnits="userSpaceOnUse"><stop offset="0.47" stop-color="#30bbed"/><stop offset="1" stop-color="#3970b7"/></linearGradient><linearGradient id="c" x1="3687.27" y1="-6877.64" x2="3845.78" y2="-6877.64" xlink:href="#a"/><linearGradient id="d" x1="3411.72" y1="-7557.43" x2="3750.38" y2="-6618.08" xlink:href="#a"/><linearGradient id="e" x1="3374.13" y1="-7543.9" x2="3712.8" y2="-6604.52" xlink:href="#a"/><linearGradient id="f" x1="3381.57" y1="-7546.57" x2="3720.23" y2="-6607.2" xlink:href="#a"/></defs><title>logo_gen</title><path class="a" d="M3822.63,255.56a29.76,29.76,0,0,1,5.47,4.09,30.05,30.05,0,0,0-5.43-4.06Z" transform="translate(-3366.89 -167.06)"/><path class="a" d="M3749,529.87h0.3l-0.3,0v0Z" transform="translate(-3366.89 -167.06)"/><path class="a" d="M3834.82,293.1a28.3,28.3,0,0,1-1.39,2.77C3833.91,295,3834.36,294,3834.82,293.1Z" transform="translate(-3366.89 -167.06)"/><path class="b" d="M3749.26,529.87A146.73,146.73,0,0,0,3895.67,383.2v-0.08a29.52,29.52,0,0,0-29.52-29.48H3749a29.51,29.51,0,0,0,0,59h82.58a87.72,87.72,0,1,1-38.69-105.42c14.1,8.12,32.45,2.72,40.58-11.38a28.3,28.3,0,0,0,1.39-2.77c24.44-49.13,11.1-115.55-64.29-125A216.12,216.12,0,0,1,3963,353.24C3970.7,438.43,3880.58,529.72,3749.26,529.87Z" transform="translate(-3366.89 -167.06)"/><path class="c" d="M3901.76,536h0A215.44,215.44,0,0,1,3749,599.28h0A215.41,215.41,0,0,1,3596.14,536h0a34.7,34.7,0,1,1,49.07-49.07h0a146.19,146.19,0,0,0,103.74,43v0l0.3,0c131.32-.15,221.44-91.44,213.72-176.63A215.75,215.75,0,0,1,3901.76,536Z" transform="translate(-3366.89 -167.06)"/><path class="d" d="M3834.82,293.1a29.57,29.57,0,0,0-12.19-37.54l0,0a30.05,30.05,0,0,1,5.43,4.06c-1.9-1.2-3.82-2.38-5.74-3.49s-3.95-2.23-6-3.27A145.91,145.91,0,0,0,3749,236.45h0a34.69,34.69,0,1,1,0-69.39h0q10.8,0,21.57,1.07C3845.91,177.55,3859.26,244,3834.82,293.1Z" transform="translate(-3366.89 -167.06)"/><path class="e" d="M3691.77,235a34.7,34.7,0,1,1-24.54-42.49A34.71,34.71,0,0,1,3691.77,235h0Z" transform="translate(-3366.89 -167.06)"/><path class="f" d="M3598.7,318a26.47,26.47,0,1,1,18.72-32.41h0A26.48,26.48,0,0,1,3598.7,318Z" transform="translate(-3366.89 -167.06)"/><path class="g" d="M3582.1,368.59a20.6,20.6,0,1,1-29.13,0A20.6,20.6,0,0,1,3582.1,368.59Z" transform="translate(-3366.89 -167.06)"/><text class="h" transform="translate(0 629.67)">GENORA<tspan class="i" x="723.42" y="-89">TM</tspan></text><text class="j" transform="translate(597.93 30.85)">TM</text></svg>