<svg id="Layer_1" data-name="Layer 1" xmlns="http://www.w3.org/2000/svg" viewBox="0 0 300 300"><defs><style>.cls-1{fill:#ffc107;}.cls-2{fill:#0288d1;}</style></defs><title>mobileappdev</title><path class="cls-1" d="M233.6,57.7a17,17,0,0,0-13.5,24.2l14.9,29.3a0.4,0.4,0,0,0,.8,0l14.7-28.9A17,17,0,0,0,233.6,57.7Zm1.9,27.1a10.2,10.2,0,1,1,10.2-10.2A10.2,10.2,0,0,1,235.5,84.8Z"/><path class="cls-2" d="M146.6,14H29.2A20.6,20.6,0,0,0,8.7,34.5V273.1a20.6,20.6,0,0,0,20.5,20.5H146.6a20.6,20.6,0,0,0,20.5-20.5V34.5A20.6,20.6,0,0,0,146.6,14ZM18,51.2H157.8V228.4H18V51.2Zm11.2-28H146.6a11.2,11.2,0,0,1,11.2,11.2v7.4H18V34.5A11.2,11.2,0,0,1,29.2,23.3ZM146.6,284.3H29.2A11.2,11.2,0,0,1,18,273.1V237.7H157.8v35.4A11.2,11.2,0,0,1,146.6,284.3Z"/><path class="cls-2" d="M87.9,242.4A18.6,18.6,0,1,0,106.6,261,18.7,18.7,0,0,0,87.9,242.4Zm0,28a9.3,9.3,0,1,1,9.3-9.3A9.3,9.3,0,0,1,87.9,270.4Z"/><path class="cls-2" d="M69.3,37.3H87.9a4.7,4.7,0,1,0,0-9.3H69.3A4.7,4.7,0,0,0,69.3,37.3Z"/><path class="cls-2" d="M101.9,37.3h4.7a4.7,4.7,0,1,0,0-9.3h-4.7A4.7,4.7,0,1,0,101.9,37.3Z"/><path class="cls-1" d="M213.6,2.6l18.7,14.8a5.9,5.9,0,0,0,6.3,0L257.4,2.6c1.5-1.2,1.2-2.2-.7-2.2H214.3C212.4,0.5,212.1,1.5,213.6,2.6Z"/><path class="cls-1" d="M258.7,6.6L238.2,22.1a5,5,0,0,1-5.5,0L212.2,6.6c-1.5-1.2-2.8-.5-2.8,1.4V33.5a3.5,3.5,0,0,0,3.5,3.5H258a3.5,3.5,0,0,0,3.5-3.5V7.9C261.5,6,260.2,5.4,258.7,6.6Z"/><path id="MobileMe" class="cls-1" d="M258.3,290.5a9,9,0,0,1-9,9H221.6a9,9,0,0,1-1.4-18,5.8,5.8,0,0,1-.1-1,5.7,5.7,0,0,1,5.7-5.7,5.6,5.6,0,0,1,3.7,1.4c1.8-4,4-7.7,10.4-7.7s11.3,6,11.3,12.3c0,0.3,0,.5,0,0.8A9,9,0,0,1,258.3,290.5Z"/><path class="cls-1" d="M253.8,158.5l6.8-20.4a2,2,0,0,0-.2-2,3.1,3.1,0,0,0-2.4-1H219.4l-1-4.9a2.7,2.7,0,0,0-2.8-2.3H204.7a1.5,1.5,0,0,0-1.7,1.6v2.8c0,1,.6,1.3,1.8,1.3h9.2l7,29.8a6.8,6.8,0,0,0,4.7,11.3c3.4,0,5.9-3.2,6.3-5.1h13.7a6.7,6.7,0,0,0,6.3,5.1,6.6,6.6,0,0,0,6.4-6.6c0-3.5-2.1-6.6-6.4-6.6a6.2,6.2,0,0,0-4.8,2.4H230.4a5.3,5.3,0,0,0-4.6-2.5l-0.2-1.2h25.5C253.1,160.2,253.4,159.5,253.8,158.5Zm-1.8,7.2a2.4,2.4,0,1,1-2.4,2.4A2.4,2.4,0,0,1,252,165.7Zm-24,2.4a2.4,2.4,0,1,1-2.4-2.4A2.4,2.4,0,0,1,228,168.1Z"/><path class="cls-1" d="M214.5,216.9c0,10.4,9.4,18.9,21,18.9a22.8,22.8,0,0,0,8.6-1.6c4.8,2.7,11.3,3.7,11.6,3.7h0.1a0.7,0.7,0,0,0,.5-1.2c-1.6-1.6-2.7-5-3.1-9.6a17.4,17.4,0,0,0,3.3-10.2c0-10.4-9.4-18.9-21-18.9S214.5,206.5,214.5,216.9Zm28,0a2.8,2.8,0,1,1,2.8,2.8A2.8,2.8,0,0,1,242.5,216.9Zm-9.8,0a2.8,2.8,0,1,1,2.8,2.8A2.8,2.8,0,0,1,232.7,216.9Zm-9.8,0a2.8,2.8,0,1,1,2.8,2.8A2.8,2.8,0,0,1,222.9,216.9Z"/></svg>