<svg xmlns="http://www.w3.org/2000/svg" width="300" height="300" viewBox="0 0 70 70">
  <defs>
    <style>
      .cls-1 {
        fill: #fff;
        fill-rule: evenodd;
      }
    </style>
  </defs>
  <path id="mobile_n" class="cls-1" d="M36.3,13H20.7a2.371,2.371,0,0,0-2.364,2.364V45.635A2.372,2.372,0,0,0,20.7,48H36.3a2.371,2.371,0,0,0,2.364-2.364V15.364A2.371,2.371,0,0,0,36.3,13ZM26,14.7H31a0.286,0.286,0,0,1,0,.573H26A0.286,0.286,0,0,1,26,14.7Zm2.5,32.114a1.182,1.182,0,1,1,1.182-1.183A1.182,1.182,0,0,1,28.5,46.818Zm8.522-3.193H19.979V16.749H37.022V43.625Z" transform="translate(6.5 4.5)"/>
</svg>
