<svg id="Layer_1" data-name="Layer 1" xmlns="http://www.w3.org/2000/svg" viewBox="0 0 300 300"><defs><style>.cls-1{fill:#0288d1;}.cls-2{fill:#ffc107;}</style></defs><title>offshoreitservices</title><path class="cls-1" d="M150,0A150.12,150.12,0,0,0,0,150.27,149.66,149.66,0,0,0,150,300h0A150,150,0,1,0,150,0ZM256,57.67c-4,5.8-14.93,18.6-37.15,28.39a200.23,200.23,0,0,0-46.08-74.84,139.51,139.51,0,0,1,76.71,39.41C251.74,52.9,253.89,55.27,256,57.67ZM157.24,291c-.85,0-1.71,0-2.57.07V201.82c23.07.46,41.25,4.21,55.3,9.16C193.6,258.61,162.57,286.46,157.24,291ZM90,211c14.29-5.05,32.45-8.71,55.3-9.16v89.25c-.86,0-1.72,0-2.58-.07C137.41,286.45,106.38,258.59,90,211ZM142.75,9.55c.85,0,1.72,0,2.58-.07V98.71c-23.07-.46-41.25-4.21-55.3-9.16C106.39,41.94,137.4,14.08,142.75,9.55Zm67.22,80c-14.29,5.05-32.45,8.71-55.3,9.16V9.47c.86,0,1.72,0,2.58.07C162.59,14.08,193.61,41.94,210,89.56Zm-55.3,18.51c23.85-.44,43-4.2,58.13-9.48a186.07,186.07,0,0,1,7.16,47H154.67Zm-9.34,0v37.51H80a186,186,0,0,1,7.16-47C102.37,103.87,121.48,107.63,145.33,108.07ZM70.69,145.59H9.45a139.74,139.74,0,0,1,28.42-80.4c5.72,7.58,17.92,20.32,40.41,30A198,198,0,0,0,70.69,145.59Zm0,9.36a197.82,197.82,0,0,0,7.6,50.43c-22.49,9.65-34.7,22.39-40.41,30a139.78,139.78,0,0,1-28.42-80.4Zm9.34,0h65.3v37.51c-23.85.44-43,4.2-58.13,9.48A186.1,186.1,0,0,1,80,154.94Zm74.64,37.51V154.94H220a186,186,0,0,1-7.16,47C197.63,196.65,178.51,192.9,154.67,192.46Zm74.64-37.51h61.23a140.25,140.25,0,0,1-28.47,80.35c-5.74-7.59-17.94-20.29-40.37-29.92A197.82,197.82,0,0,0,229.31,154.94Zm0-9.36a197.82,197.82,0,0,0-7.6-50.43c22.49-9.65,34.7-22.39,40.41-30a139.82,139.82,0,0,1,28.43,80.41ZM127.24,11.22A200.3,200.3,0,0,0,81.16,86.07a106.76,106.76,0,0,1-17.27-9.46c-11-7.47-17.05-14.92-19.86-19,2.09-2.4,4.24-4.75,6.51-7A139.49,139.49,0,0,1,127.24,11.22ZM44,242.86c4-5.79,14.93-18.6,37.15-28.39a200.35,200.35,0,0,0,46.08,74.85,139.53,139.53,0,0,1-76.71-39.41C48.26,247.63,46.1,245.26,44,242.86Zm106,52.46h0v0Zm22.76-6a200.34,200.34,0,0,0,46.07-74.84,106.76,106.76,0,0,1,17.27,9.46c10.93,7.44,17,14.86,19.81,18.9A140.52,140.52,0,0,1,172.77,289.3Z"/><path class="cls-2" d="M214.78,22.07a25.5,25.5,0,0,0-23,36.5c.09.19,23,45.07,23,45.07l22.72-44.51a25.5,25.5,0,0,0-22.72-37.06Zm0,40.79a15.29,15.29,0,1,1,15.29-15.29A15.3,15.3,0,0,1,214.78,62.85Z"/><path class="cls-2" d="M54.27,146a25.5,25.5,0,0,0-23,36.5c.09.19,23,45.07,23,45.07L77,183.09A25.5,25.5,0,0,0,54.27,146Zm0,40.79a15.29,15.29,0,1,1,15.29-15.29A15.3,15.3,0,0,1,54.27,186.81Z"/><path class="cls-2" d="M183.71,180.15a25.5,25.5,0,0,0-23,36.5c.09.19,23,45.07,23,45.07l22.72-44.51a25.5,25.5,0,0,0-22.72-37.06Zm0,40.79A15.29,15.29,0,1,1,199,205.64,15.3,15.3,0,0,1,183.71,220.93Z"/></svg>