<svg id="Layer_1" data-name="Layer 1" xmlns="http://www.w3.org/2000/svg" viewBox="0 0 300 300"><defs><style>.cls-1,.cls-2,.cls-4{fill:none;stroke:#0288d1;}.cls-1,.cls-2{stroke-miterlimit:10;}.cls-1{stroke-width:9px;}.cls-2{stroke-width:4px;}.cls-3{fill:#ffc107;}.cls-4{stroke-linecap:round;stroke-linejoin:round;stroke-width:3px;stroke-dasharray:8.01 17.01;}</style></defs><title>offshoreitservices</title><circle class="cls-1" cx="150" cy="150" r="123.9"/><path class="cls-2" d="M149.9,274.1a146.9,146.9,0,0,1,0-248.2"/><path class="cls-2" d="M150.1,25.9a146.9,146.9,0,0,1,0,248.3"/><line class="cls-2" x1="150" y1="26.1" x2="150" y2="273.9"/><line class="cls-2" x1="252.6" y1="81" x2="47.4" y2="81"/><line class="cls-2" x1="252.6" y1="214.6" x2="47.4" y2="214.6"/><path class="cls-3" d="M59.6,168.1a14.5,14.5,0,0,0-13.1,20.8l13.1,25.7,13-25.4A14.5,14.5,0,0,0,59.6,168.1Zm0,23.3a8.7,8.7,0,1,1,8.7-8.7A8.7,8.7,0,0,1,59.6,191.4Z"/><path class="cls-3" d="M170.6,130.3a14.5,14.5,0,0,0-13.1,20.8l13.1,25.7,13-25.4A14.5,14.5,0,0,0,170.6,130.3Zm0,23.3a8.7,8.7,0,1,1,8.7-8.7A8.7,8.7,0,0,1,170.6,153.6Z"/><path class="cls-3" d="M238.1,89.6A14.5,14.5,0,0,0,225,110.4l13.1,25.7,13-25.4A14.5,14.5,0,0,0,238.1,89.6Zm0,23.3a8.7,8.7,0,1,1,8.7-8.7A8.7,8.7,0,0,1,238.1,112.9Z"/><circle class="cls-4" cx="150" cy="150" r="147.3"/></svg>