<svg xmlns="http://www.w3.org/2000/svg" xmlns:xlink="http://www.w3.org/1999/xlink" xmlns:fi="http://pattern.flaticon.com/" x="0" y="0" width="2160" height="1080" viewBox="0 0 1434.5351043643263 717.2675521821632"><rect x="0px" y="0px" width="100%" height="100%" opacity="1" fill="#ffffff"/><defs><g transform="matrix(0.078125 0 0 0.078125 242.5 67.5)" id="L1_64"><circle cx="256" cy="256" r="256"/><g><path d="M417.408,318.496H94.576v-170.88h322.832V318.496z M110.576,302.496h290.832V163.6H110.576V302.496z   " fill="#ffffff"/><rect x="93px" y="348px" width="324px" height="16px" fill="#ffffff"/></g></g><g transform="matrix(0.13671875 0 0 0.13671875 315 140)" id="L1_65"><circle cx="256" cy="256" r="256" fill="#f33052"/><g><rect x="125px" y="117px" width="194px" height="16px" fill="#ffffff"/><rect x="192px" y="174px" width="194px" height="16px" fill="#ffffff"/><rect x="125px" y="248px" width="194px" height="16px" fill="#ffffff"/><rect x="192px" y="305px" width="194px" height="16px" fill="#ffffff"/><rect x="125px" y="378px" width="194px" height="16px" fill="#ffffff"/></g></g><g transform="matrix(0.078125 0 0 0.078125 155 330)" id="L1_66"><path d="M0,346.68v-310c0-5.44,4.72-10,10.48-10H501.6c5.68,0,10.4,4.56,10.4,10v310H0z"/><g><path d="M512,346.68v42.64c0,5.92-4.72,10.72-10.48,10.72H10.48C4.72,400.04,0,395.24,0,389.4v-42.64h512   V346.68z" fill="#999999"/><path d="M330.64,474.68 181.36,474.68 192,400.04 320,400.04z" fill="#999999"/></g><g><path d="M192,400.04 320,400.04 326.64,446.6 189.52,417.4z" fill="#666666"/><rect x="144px" y="474px" width="224px" height="10px" fill="#666666"/></g><g><circle cx="149" cy="69" r="10" fill="#ffffff"/><circle cx="106" cy="69" r="10" fill="#ffffff"/><circle cx="64" cy="69" r="10" fill="#ffffff"/></g><rect x="181px" y="64px" width="277px" height="10px" fill="#999999"/><g><path d="M263.44,144.04l5.28,20.32c1.12,4.48,2.24,8.56,2.96,12.72h0.24c0.88-4.08,2.24-8.32,3.52-12.64   l6.56-20.4h6.08l6.16,19.92c1.52,4.8,2.64,8.96,3.52,13.04H298c0.64-4.08,1.76-8.24,3.04-12.96l5.76-20h7.2l-12.88,39.92h-6.56   l-6.08-19.04c-1.44-4.48-2.56-8.4-3.52-13.12h-0.16c-0.96,4.8-2.24,8.88-3.6,13.2l-6.4,18.96H268l-12-39.92H263.44z" fill="#f33052"/><path d="M325.12,144.04l5.28,20.32c1.12,4.48,2.24,8.56,2.96,12.72h0.24c0.88-4.08,2.24-8.32,3.52-12.64   l6.56-20.4h6.08l6.16,19.92c1.52,4.8,2.64,8.96,3.52,13.04h0.24c0.64-4.08,1.76-8.24,3.04-12.96l5.76-20h7.2l-12.88,39.92h-6.56   l-6.08-19.04c-1.44-4.48-2.56-8.4-3.52-13.12h-0.24c-0.96,4.8-2.24,8.88-3.6,13.2l-6.4,18.96h-6.56l-12.16-39.92H325.12z" fill="#f33052"/><path d="M386.8,144.04l5.28,20.32c1.12,4.48,2.24,8.56,2.96,12.72h0.24c0.88-4.08,2.24-8.32,3.52-12.64   l6.56-20.4h6.08l6.16,19.92c1.52,4.8,2.64,8.96,3.52,13.04h0.24c0.64-4.08,1.76-8.24,3.04-12.96l5.76-20h7.2l-12.88,39.92h-6.56   l-6.08-19.04c-1.44-4.48-2.56-8.4-3.52-13.12h-0.16c-0.96,4.8-2.24,8.88-3.6,13.2l-6.4,18.96h-6.56l-12.24-39.92H386.8z" fill="#f33052"/><rect x="74px" y="144px" width="146px" height="10px" fill="#f33052"/></g><rect x="74px" y="186px" width="146px" height="10px" fill="#999999"/><rect x="256px" y="197px" width="181px" height="10px" fill="#ffffff"/><g><rect x="74px" y="208px" width="146px" height="10px" fill="#999999"/><rect x="74px" y="229px" width="146px" height="10px" fill="#999999"/><rect x="74px" y="250px" width="146px" height="10px" fill="#999999"/><rect x="74px" y="272px" width="146px" height="10px" fill="#999999"/></g><rect x="384px" y="229px" width="53px" height="53px" fill="#f33052"/><rect x="320px" y="229px" width="53px" height="53px" fill="#999999"/><g><rect x="256px" y="229px" width="53px" height="53px" fill="#ffffff"/><path d="M460.72,26.68H10.48C4.72,26.68,0,31.24,0,36.68v179.44   L460.72,26.68z" opacity="0.2" fill="#ffffff"/></g></g><g transform="matrix(0.1697916491523753 0.04549553527192747 -0.04549553527192747 0.1697916491523753 -31.819805153394643 -55.11351921262151)" id="L1_67"><circle cx="256" cy="256" r="256"/><g><path d="M133.376,201.328v74.784c0,13.92-2.304,23.152-6.912,27.712c-4.608,4.544-13.968,6.832-28.096,6.832   c-15.04,0-24.8-2.208-29.264-6.592s-6.704-14-6.704-28.816l0.24-8.032h19.616c0.32,4.032,0.48,7.04,0.48,9.056   c0,1.904,0.08,4.208,0.24,6.912c0.32,6.56,5.536,9.84,15.648,9.84c6.032,0,9.904-1.184,11.632-3.536   c1.712-2.352,2.576-7.664,2.576-15.92v-72.256h20.544V201.328z" fill="#f33052"/><path d="M218.016,288.912h-46.768l-6.752,20.8h-21.744l36.032-108.368h30.896l36.592,108.368h-21.344   L218.016,288.912z M213.248,273.744l-18.736-56.448l-18.4,56.448H213.248z" fill="#f33052"/><path d="M325.04,201.328h21.744L311.84,309.696h-31.6l-34.608-108.368h21.344l20.336,61.376   c1.904,5.872,4.736,15.712,8.496,29.536h0.544l2.064-7.392c2.544-9.2,4.72-16.56,6.512-22.064L325.04,201.328z" fill="#f33052"/><path d="M421.328,288.912H374.56l-6.752,20.8h-21.744l36.048-108.368h30.88l36.592,108.368H428.24   L421.328,288.912z M416.576,273.744l-18.736-56.448l-18.416,56.448H416.576z" fill="#f33052"/></g></g><g transform="matrix(0.0390625 0 0 0.0390625 77.5 340)" id="L1_68"><path d="M469.28,396.8V102.4c0-7.04-5.76-12.8-12.8-12.8H55.52c-7.04,0-12.8,5.76-12.8,12.8v294.4  C42.72,396.8,470.32,396.8,469.28,396.8z"/><rect x="0px" y="396px" width="512px" height="8px" fill="#d8d8d8"/><path d="M486.4,422.4 25.6,422.4 0,405.36 512,405.36z" fill="#999999"/><g><circle cx="162" cy="124" r="8" fill="#ffffff"/><circle cx="128" cy="124" r="8" fill="#ffffff"/><circle cx="93" cy="124" r="8" fill="#ffffff"/></g><rect x="187px" y="119px" width="238px" height="8px" fill="#999999"/><rect x="102px" y="235px" width="136px" height="25px" fill="#f33052"/><g><rect x="102px" y="286px" width="136px" height="25px" fill="#999999"/><rect x="102px" y="183px" width="136px" height="25px" fill="#999999"/></g><rect x="273px" y="235px" width="136px" height="25px" fill="#f33052"/><g><rect x="273px" y="286px" width="136px" height="25px" fill="#999999"/><rect x="273px" y="183px" width="136px" height="25px" fill="#999999"/></g><g><rect x="102px" y="337px" width="8px" height="8px" fill="#ffffff"/><rect x="119px" y="337px" width="8px" height="8px" fill="#ffffff"/><rect x="136px" y="337px" width="8px" height="8px" fill="#ffffff"/><rect x="153px" y="337px" width="8px" height="8px" fill="#ffffff"/><rect x="273px" y="337px" width="8px" height="8px" fill="#ffffff"/><rect x="290px" y="337px" width="8px" height="8px" fill="#ffffff"/><rect x="307px" y="337px" width="8px" height="8px" fill="#ffffff"/><rect x="324px" y="337px" width="8px" height="8px" fill="#ffffff"/><path d="M341.44,89.92H55.36c-7.04,0-12.8,5.76-12.8,12.8v138.8   L341.44,89.92z" opacity="0.2" fill="#ffffff"/></g></g><g transform="matrix(0.0390625 0 0 0.0390625 252.5 340)" id="L1_69"><circle cx="256" cy="256" r="256" fill="#f33052"/><g><path d="M184.512,271.52h20.64v3.728c0,15.072-2.752,24.832-8.256,29.248s-17.664,6.624-36.512,6.624   c-21.392,0-34.544-3.488-39.472-10.464c-4.928-7.008-7.376-25.664-7.376-56.064c0-17.888,3.328-29.648,10-35.28   c6.672-5.632,20.608-8.448,41.84-8.448c15.456,0,25.76,2.32,30.96,6.944c5.184,4.64,7.776,13.824,7.776,27.6l0.08,2.448h-20.64   v-2.768c0-7.088-1.328-11.648-4-13.632s-8.784-2.976-18.304-2.976c-12.768,0-20.416,1.568-22.992,4.672   c-2.576,3.12-3.856,12.384-3.856,27.792c0,20.752,1.152,33.024,3.456,36.832c2.32,3.808,9.744,5.712,22.336,5.712   c10.224,0,16.848-1.04,19.888-3.168c3.04-2.112,4.56-6.784,4.56-13.968L184.512,271.52z" fill="#ffffff"/><path d="M298.512,233.408h-20.096c-0.096-0.992-0.16-1.744-0.16-2.224c-0.464-6.096-1.808-9.92-4.032-11.488   c-2.224-1.552-7.472-2.336-15.712-2.336c-9.744,0-16.112,0.896-19.088,2.688c-3.008,1.792-4.48,5.6-4.48,11.36   c0,6.832,1.216,10.928,3.648,12.304c2.432,1.392,10.48,2.432,24.128,3.184c16.16,0.896,26.592,3.2,31.344,6.912   c4.72,3.696,7.088,11.408,7.088,23.088c0,14.4-2.784,23.696-8.336,27.904c-5.568,4.224-17.808,6.32-36.752,6.32   c-17.04,0-28.352-2.064-33.936-6.192s-8.368-12.48-8.368-25.088l-0.08-3.968h20l0.08,2.32c0,7.568,1.328,12.192,3.968,13.888   c2.656,1.68,9.872,2.528,21.68,2.528c9.184,0,15.056-0.976,17.632-2.944c2.528-1.952,3.808-6.48,3.808-13.568   c0-5.248-0.976-8.736-2.912-10.448s-6.096-2.768-12.496-3.12l-11.36-0.72c-17.136-0.992-28.112-3.392-32.864-7.136   c-4.768-3.76-7.152-11.824-7.152-24.224c0-12.656,2.88-21.072,8.624-25.28c5.728-4.224,17.2-6.32,34.4-6.32   c16.32,0,27.28,1.92,32.944,5.792c5.68,3.856,8.496,11.408,8.496,22.624v4.144H298.512z" fill="#ffffff"/><path d="M395.856,233.408H375.76c-0.112-0.992-0.16-1.744-0.16-2.224c-0.464-6.096-1.824-9.92-4.048-11.488   c-2.224-1.552-7.472-2.336-15.712-2.336c-9.728,0-16.112,0.896-19.088,2.688s-4.48,5.6-4.48,11.36   c0,6.832,1.216,10.928,3.664,12.304c2.416,1.392,10.464,2.432,24.128,3.184c16.144,0.896,26.592,3.2,31.328,6.912   s7.088,11.408,7.088,23.088c0,14.4-2.768,23.696-8.336,27.904c-5.568,4.224-17.808,6.32-36.768,6.32   c-17.024,0-28.336-2.064-33.936-6.192c-5.584-4.128-8.368-12.48-8.368-25.088l-0.08-3.968h20.016l0.08,2.32   c0,7.568,1.312,12.192,3.968,13.888c2.64,1.68,9.856,2.528,21.664,2.528c9.2,0,15.072-0.976,17.632-2.944   c2.528-1.952,3.808-6.48,3.808-13.568c0-5.248-0.976-8.736-2.912-10.448c-1.92-1.712-6.096-2.768-12.496-3.12l-11.36-0.72   c-17.136-0.992-28.096-3.392-32.864-7.136c-4.768-3.76-7.136-11.824-7.136-24.224c0-12.656,2.864-21.072,8.608-25.28   c5.728-4.224,17.216-6.32,34.4-6.32c16.32,0,27.296,1.92,32.96,5.792c5.664,3.856,8.496,11.408,8.496,22.624L395.856,233.408   L395.856,233.408z" fill="#ffffff"/></g></g><g transform="matrix(0.078125 0 0 0.078125 67.5 67.5)" id="L1_70"><circle cx="256" cy="256" r="256"/><g><path d="M145.84,204.144V307.84h-19.68v-44.832H77.536v44.832h-19.68V204.144h19.68v42.32h48.624v-42.32   L145.84,204.144L145.84,204.144z" fill="#f33052"/><path d="M205.408,221.776v86.08h-19.68v-86.08h-29.936v-17.632h80.624v17.632L205.408,221.776   L205.408,221.776z" fill="#f33052"/><path d="M367.616,204.144V307.84h-19.664v-56.528c0-4.496,0.128-9.632,0.368-15.344l0.368-7.744l0.384-7.664   h-0.592l-2.352,7.216l-2.288,7.216c-2.128,6.48-3.776,11.264-4.944,14.352l-22.8,58.496h-17.92l-23.024-58.048   c-1.264-3.184-2.944-7.968-5.008-14.352l-2.336-7.216l-2.352-7.136h-0.608l0.368,7.52l0.384,7.616   c0.304,5.872,0.448,10.912,0.448,15.104v56.528h-19.68V204.16h32.064l18.544,48.016c1.264,3.344,2.944,8.128,5.008,14.352   l2.288,7.216l2.336,7.136h0.688l2.208-7.136l2.288-7.136c1.872-6.032,3.504-10.8,4.864-14.288l18.24-48.176L367.616,204.144   L367.616,204.144z" fill="#f33052"/><path d="M405.52,204.144v86.08h48.624v17.632h-68.32V204.16h19.696V204.144z" fill="#f33052"/></g></g><g transform="matrix(0.13206017156295854 -0.03538541632261026 0.03538541632261026 0.13206017156295854 132.15728400565257 150.24818848032118)" id="L1_71"><path d="M0,346.68v-310c0-5.44,4.72-10,10.48-10H501.6c5.68,0,10.4,4.56,10.4,10v310H0z"/><g><path d="M512,346.68v42.64c0,5.92-4.72,10.72-10.48,10.72H10.48C4.72,400.04,0,395.24,0,389.4v-42.64h512   V346.68z" fill="#999999"/><path d="M330.64,474.68 181.36,474.68 192,400.04 320,400.04z" fill="#999999"/></g><g><path d="M192,400.04 320,400.04 326.64,446.6 189.52,417.4z" fill="#666666"/><rect x="144px" y="474px" width="224px" height="10px" fill="#666666"/></g><g><circle cx="149" cy="69" r="10" fill="#ffffff"/><circle cx="106" cy="69" r="10" fill="#ffffff"/><circle cx="64" cy="69" r="10" fill="#ffffff"/></g><rect x="181px" y="64px" width="277px" height="10px" fill="#999999"/><rect x="266px" y="144px" width="170px" height="21px" fill="#f33052"/><rect x="266px" y="186px" width="170px" height="10px" fill="#ffffff"/><rect x="266px" y="229px" width="170px" height="10px" fill="#999999"/><rect x="266px" y="272px" width="170px" height="10px" fill="#f33052"/><rect x="266px" y="208px" width="170px" height="10px" fill="#999999"/><g><path d="M213.36,218.68H96c-5.84,0-10.64-4.8-10.64-10.64V133.4c0-5.84,4.8-10.64,10.64-10.64h117.36   c5.84,0,10.64,4.8,10.64,10.64v74.64C224,213.88,219.2,218.68,213.36,218.68z" fill="#f33052"/><path d="M192,250.68 192,208.04 138.64,208.04z" fill="#f33052"/><path d="M143.6,297.48H80.4c-3.12,0-5.76-2.56-5.76-5.76v-40.24c0-3.12,2.56-5.76,5.76-5.76h63.2   c3.12,0,5.76,2.56,5.76,5.76v40.24C149.36,294.92,146.72,297.48,143.6,297.48z" fill="#f33052"/><path d="M137.84,314.68 137.84,291.72 109.12,291.72z" fill="#f33052"/></g><g><rect x="149px" y="154px" width="10px" height="10px" fill="#ffffff"/><rect x="128px" y="154px" width="10px" height="10px" fill="#ffffff"/><rect x="106px" y="154px" width="10px" height="10px" fill="#ffffff"/><rect x="170px" y="154px" width="10px" height="10px" fill="#ffffff"/><rect x="192px" y="154px" width="10px" height="10px" fill="#ffffff"/><rect x="149px" y="176px" width="10px" height="10px" fill="#ffffff"/><rect x="170px" y="176px" width="10px" height="10px" fill="#ffffff"/><rect x="192px" y="176px" width="10px" height="10px" fill="#ffffff"/><rect x="85px" y="261px" width="10px" height="10px" fill="#ffffff"/><rect x="106px" y="261px" width="10px" height="10px" fill="#ffffff"/><rect x="128px" y="261px" width="10px" height="10px" fill="#ffffff"/><path d="M460.72,26.68H10.48C4.72,26.68,0,31.24,0,36.68v179.44   L460.72,26.68z" opacity="0.2" fill="#ffffff"/></g></g><g transform="matrix(0.17578125 0 0 0.17578125 217.5 217.5)" id="L1_72"><circle cx="256" cy="256" r="256" fill="#e8e8e8"/><g><path d="M365.6,398.96 365.6,320.8 267.92,320.8z" fill="#ffffff"/><path d="M358.08,336H153.92C117.68,336,88,306.32,88,270.08v-76.16c0-36.24,29.68-65.92,65.92-65.92h204.16   c36.24,0,65.92,29.68,65.92,65.92v76.16C424,306.4,394.32,336,358.08,336z" fill="#ffffff"/></g><path d="M147.12,254.08c3.76,2.48,10.4,5.04,16.8,5.04c9.28,0,13.6-4.64,13.6-10.4c0-6.08-3.6-9.44-13.04-12.88  c-12.56-4.48-18.56-11.44-18.56-19.84c0-11.28,9.12-20.56,24.16-20.56c7.12,0,13.28,2,17.2,4.32l-3.2,9.28  c-2.72-1.76-7.84-4.08-14.32-4.08c-7.52,0-11.76,4.32-11.76,9.52c0,5.76,4.16,8.4,13.28,11.84c12.16,4.64,18.4,10.72,18.4,21.12  c0,12.32-9.52,20.96-26.16,20.96c-7.68,0-14.8-1.92-19.68-4.8L147.12,254.08z"/><path d="M206.24,216c0-7.2-0.16-13.2-0.56-18.96h11.12l0.56,11.28h0.4c3.92-6.64,10.4-12.88,22-12.88c9.52,0,16.8,5.76,19.84,14.08  h0.32c2.16-3.92,4.88-6.96,7.84-9.12c4.24-3.2,8.8-4.96,15.52-4.96c9.28,0,23.04,6.08,23.04,30.4v41.28h-12.48v-39.68  c0-13.44-4.96-21.6-15.2-21.6c-7.2,0-12.88,5.36-15.04,11.6c-0.56,1.76-1.04,4.08-1.04,6.4v43.28h-12.48v-42  c0-11.12-4.88-19.28-14.64-19.28c-7.92,0-13.76,6.4-15.76,12.72c-0.72,1.92-1.04,4.08-1.04,6.24v42.24h-12.48V216H206.24z"/><path d="M325.28,254.08c3.76,2.48,10.4,5.04,16.8,5.04c9.28,0,13.6-4.64,13.6-10.4c0-6.08-3.6-9.44-13.04-12.88  c-12.56-4.48-18.56-11.44-18.56-19.84c0-11.28,9.12-20.56,24.16-20.56c7.12,0,13.28,2,17.2,4.32l-3.2,9.28  c-2.72-1.76-7.84-4.08-14.32-4.08c-7.52,0-11.76,4.32-11.76,9.52c0,5.76,4.16,8.4,13.28,11.84c12.16,4.64,18.4,10.72,18.4,21.12  c0,12.32-9.52,20.96-26.16,20.96c-7.68,0-14.8-1.92-19.68-4.8L325.28,254.08z"/></g><g transform="matrix(0.09765625 0 0 0.09765625 62.5 237.5)" id="L1_73"><path d="M469.28,396.8V102.4c0-7.04-5.76-12.8-12.8-12.8H55.52c-7.04,0-12.8,5.76-12.8,12.8v294.4  C42.72,396.8,470.32,396.8,469.28,396.8z"/><rect x="0px" y="396px" width="512px" height="8px" fill="#d8d8d8"/><path d="M486.4,422.4 25.6,422.4 0,405.36 512,405.36z" fill="#999999"/><g><circle cx="162" cy="124" r="8" fill="#ffffff"/><circle cx="128" cy="124" r="8" fill="#ffffff"/><circle cx="93" cy="124" r="8" fill="#ffffff"/></g><rect x="187px" y="119px" width="238px" height="8px" fill="#999999"/><g><rect x="375px" y="303px" width="34px" height="8px" fill="#ffffff"/><rect x="320px" y="303px" width="34px" height="8px" fill="#ffffff"/><rect x="266px" y="303px" width="34px" height="8px" fill="#ffffff"/><rect x="211px" y="303px" width="34px" height="8px" fill="#ffffff"/><rect x="157px" y="303px" width="34px" height="8px" fill="#ffffff"/><rect x="102px" y="303px" width="34px" height="8px" fill="#ffffff"/><circle cx="145" cy="226" r="12" fill="#ffffff"/></g><g><path d="M187.76,232.88v-12.8l-13.04-1.28c-0.72-2.72-1.92-5.28-3.36-7.68l8.4-10.24l-9.04-9.04l-10.64,8.72   c-2.24-1.2-4.64-2.08-7.12-2.64l-1.44-14.08h-6.4h-0.08h-6.4l-1.44,14.08c-2.56,0.56-4.96,1.44-7.12,2.64l-10.64-8.72l-9.04,8.96   l8.4,10.24c-1.44,2.32-2.56,4.96-3.36,7.68L102.4,220v12.8l13.04,1.28c0.72,2.72,1.84,5.28,3.36,7.68L110.4,252l9.04,9.04   l10.64-8.72c2.24,1.2,4.64,2.08,7.12,2.64l1.44,14.08h6.4h0.08h6.4l1.44-14.08c2.56-0.56,4.96-1.44,7.12-2.64l10.64,8.72l9.04-9.04   l-8.4-10.24c1.44-2.32,2.56-4.96,3.36-7.68L187.76,232.88z M145.04,245.68c-10.64,0-19.28-8.64-19.28-19.28s8.64-19.28,19.28-19.28   s19.28,8.64,19.28,19.28C164.32,237.12,155.68,245.68,145.04,245.68z" fill="#f33052"/><rect x="207px" y="183px" width="202px" height="8px" fill="#f33052"/></g><g><rect x="207px" y="209px" width="202px" height="8px" fill="#999999"/><rect x="207px" y="235px" width="202px" height="8px" fill="#999999"/><rect x="207px" y="260px" width="202px" height="8px" fill="#999999"/></g><rect x="102px" y="337px" width="307px" height="8px" fill="#f33052"/><path d="M340.64,89.6H54.48c-7.04,0-12.8,5.76-12.8,12.8v138.8  L340.64,89.6z" opacity="0.2" fill="#ffffff"/></g></defs><g fi:class="KUsePattern" opacity="0.2"><pattern id="pattern_L1_64" width="350" height="350" patternUnits="userSpaceOnUse"><use xlink:href="#L1_64" x="-350" y="-350"/><use xlink:href="#L1_64" x="0" y="-350"/><use xlink:href="#L1_64" x="350" y="-350"/><use xlink:href="#L1_64" x="-350" y="0"/><use xlink:href="#L1_64" x="0" y="0"/><use xlink:href="#L1_64" x="350" y="0"/><use xlink:href="#L1_64" x="-350" y="350"/><use xlink:href="#L1_64" x="0" y="350"/><use xlink:href="#L1_64" x="350" y="350"/></pattern><rect x="0" y="0" width="100%" height="100%" fill="url(#pattern_L1_64)"/></g><g fi:class="KUsePattern" opacity="0.11"><pattern id="pattern_L1_65" width="350" height="350" patternUnits="userSpaceOnUse"><use xlink:href="#L1_65" x="-350" y="-350"/><use xlink:href="#L1_65" x="0" y="-350"/><use xlink:href="#L1_65" x="350" y="-350"/><use xlink:href="#L1_65" x="-350" y="0"/><use xlink:href="#L1_65" x="0" y="0"/><use xlink:href="#L1_65" x="350" y="0"/><use xlink:href="#L1_65" x="-350" y="350"/><use xlink:href="#L1_65" x="0" y="350"/><use xlink:href="#L1_65" x="350" y="350"/></pattern><rect x="0" y="0" width="100%" height="100%" fill="url(#pattern_L1_65)"/></g><g fi:class="KUsePattern" opacity="0.56"><pattern id="pattern_L1_66" width="350" height="350" patternUnits="userSpaceOnUse"><use xlink:href="#L1_66" x="-350" y="-350"/><use xlink:href="#L1_66" x="0" y="-350"/><use xlink:href="#L1_66" x="350" y="-350"/><use xlink:href="#L1_66" x="-350" y="0"/><use xlink:href="#L1_66" x="0" y="0"/><use xlink:href="#L1_66" x="350" y="0"/><use xlink:href="#L1_66" x="-350" y="350"/><use xlink:href="#L1_66" x="0" y="350"/><use xlink:href="#L1_66" x="350" y="350"/></pattern><rect x="0" y="0" width="100%" height="100%" fill="url(#pattern_L1_66)"/></g><g fi:class="KUsePattern" opacity="0.15"><pattern id="pattern_L1_67" width="350" height="350" patternUnits="userSpaceOnUse"><use xlink:href="#L1_67" x="-350" y="-350"/><use xlink:href="#L1_67" x="0" y="-350"/><use xlink:href="#L1_67" x="350" y="-350"/><use xlink:href="#L1_67" x="-350" y="0"/><use xlink:href="#L1_67" x="0" y="0"/><use xlink:href="#L1_67" x="350" y="0"/><use xlink:href="#L1_67" x="-350" y="350"/><use xlink:href="#L1_67" x="0" y="350"/><use xlink:href="#L1_67" x="350" y="350"/></pattern><rect x="0" y="0" width="100%" height="100%" fill="url(#pattern_L1_67)"/></g><g fi:class="KUsePattern" opacity="0.21"><pattern id="pattern_L1_68" width="350" height="350" patternUnits="userSpaceOnUse"><use xlink:href="#L1_68" x="-350" y="-350"/><use xlink:href="#L1_68" x="0" y="-350"/><use xlink:href="#L1_68" x="350" y="-350"/><use xlink:href="#L1_68" x="-350" y="0"/><use xlink:href="#L1_68" x="0" y="0"/><use xlink:href="#L1_68" x="350" y="0"/><use xlink:href="#L1_68" x="-350" y="350"/><use xlink:href="#L1_68" x="0" y="350"/><use xlink:href="#L1_68" x="350" y="350"/></pattern><rect x="0" y="0" width="100%" height="100%" fill="url(#pattern_L1_68)"/></g><g fi:class="KUsePattern" opacity="0.44"><pattern id="pattern_L1_69" width="350" height="350" patternUnits="userSpaceOnUse"><use xlink:href="#L1_69" x="-350" y="-350"/><use xlink:href="#L1_69" x="0" y="-350"/><use xlink:href="#L1_69" x="350" y="-350"/><use xlink:href="#L1_69" x="-350" y="0"/><use xlink:href="#L1_69" x="0" y="0"/><use xlink:href="#L1_69" x="350" y="0"/><use xlink:href="#L1_69" x="-350" y="350"/><use xlink:href="#L1_69" x="0" y="350"/><use xlink:href="#L1_69" x="350" y="350"/></pattern><rect x="0" y="0" width="100%" height="100%" fill="url(#pattern_L1_69)"/></g><g fi:class="KUsePattern" opacity="0.36"><pattern id="pattern_L1_70" width="350" height="350" patternUnits="userSpaceOnUse"><use xlink:href="#L1_70" x="-350" y="-350"/><use xlink:href="#L1_70" x="0" y="-350"/><use xlink:href="#L1_70" x="350" y="-350"/><use xlink:href="#L1_70" x="-350" y="0"/><use xlink:href="#L1_70" x="0" y="0"/><use xlink:href="#L1_70" x="350" y="0"/><use xlink:href="#L1_70" x="-350" y="350"/><use xlink:href="#L1_70" x="0" y="350"/><use xlink:href="#L1_70" x="350" y="350"/></pattern><rect x="0" y="0" width="100%" height="100%" fill="url(#pattern_L1_70)"/></g><g fi:class="KUsePattern" opacity="0.15"><pattern id="pattern_L1_71" width="350" height="350" patternUnits="userSpaceOnUse"><use xlink:href="#L1_71" x="-350" y="-350"/><use xlink:href="#L1_71" x="0" y="-350"/><use xlink:href="#L1_71" x="350" y="-350"/><use xlink:href="#L1_71" x="-350" y="0"/><use xlink:href="#L1_71" x="0" y="0"/><use xlink:href="#L1_71" x="350" y="0"/><use xlink:href="#L1_71" x="-350" y="350"/><use xlink:href="#L1_71" x="0" y="350"/><use xlink:href="#L1_71" x="350" y="350"/></pattern><rect x="0" y="0" width="100%" height="100%" fill="url(#pattern_L1_71)"/></g><g fi:class="KUsePattern" opacity="0.39"><pattern id="pattern_L1_72" width="350" height="350" patternUnits="userSpaceOnUse"><use xlink:href="#L1_72" x="-350" y="-350"/><use xlink:href="#L1_72" x="0" y="-350"/><use xlink:href="#L1_72" x="350" y="-350"/><use xlink:href="#L1_72" x="-350" y="0"/><use xlink:href="#L1_72" x="0" y="0"/><use xlink:href="#L1_72" x="350" y="0"/><use xlink:href="#L1_72" x="-350" y="350"/><use xlink:href="#L1_72" x="0" y="350"/><use xlink:href="#L1_72" x="350" y="350"/></pattern><rect x="0" y="0" width="100%" height="100%" fill="url(#pattern_L1_72)"/></g><g fi:class="KUsePattern" opacity="0.23"><pattern id="pattern_L1_73" width="350" height="350" patternUnits="userSpaceOnUse"><use xlink:href="#L1_73" x="-350" y="-350"/><use xlink:href="#L1_73" x="0" y="-350"/><use xlink:href="#L1_73" x="350" y="-350"/><use xlink:href="#L1_73" x="-350" y="0"/><use xlink:href="#L1_73" x="0" y="0"/><use xlink:href="#L1_73" x="350" y="0"/><use xlink:href="#L1_73" x="-350" y="350"/><use xlink:href="#L1_73" x="0" y="350"/><use xlink:href="#L1_73" x="350" y="350"/></pattern><rect x="0" y="0" width="100%" height="100%" fill="url(#pattern_L1_73)"/></g></svg>