<svg id="Layer_1" data-name="Layer 1" xmlns="http://www.w3.org/2000/svg" viewBox="0 0 300 300"><defs><style>.cls-1{fill:#ffc107;}.cls-2,.cls-4,.cls-5{fill:none;}.cls-2,.cls-3,.cls-4,.cls-5{stroke:#0288d1;}.cls-2{stroke-linejoin:round;stroke-width:10px;}.cls-3,.cls-4,.cls-5{stroke-miterlimit:10;}.cls-3{stroke-width:8px;}.cls-4{stroke-width:14px;}.cls-5{stroke-linecap:round;stroke-width:13px;}</style></defs><title>softwaredev</title><path class="cls-1" d="M112.9,95.6a4.1,4.1,0,0,0-5.6-1.4L59.4,122.7a4.1,4.1,0,0,0,0,7.1l47.9,28.5a4.1,4.1,0,1,0,4.2-7.1l-42-25,42-25a4.1,4.1,0,0,0,1.4-5.6h0Z"/><path class="cls-1" d="M187.1,156.9a4.1,4.1,0,0,0,5.6,1.4l47.9-28.5a4.1,4.1,0,0,0,0-7.1L192.7,94.2a4.1,4.1,0,1,0-4.2,7.1l42,25-42,25A4.1,4.1,0,0,0,187.1,156.9Z"/><path class="cls-1" d="M165.7,95.4l-38.3,57.1a4.1,4.1,0,1,0,6.8,4.6L172.6,100a4.1,4.1,0,1,0-6.8-4.6h0Z"/><rect class="cls-2" x="9.4" y="37.6" width="281.3" height="177.25"/><line class="cls-3" x1="9.4" y1="190.3" x2="290.6" y2="190.3"/><line class="cls-4" x1="150" y1="214.2" x2="150" y2="244.2"/><line class="cls-5" x1="123.2" y1="244.2" x2="176.8" y2="244.2"/></svg>