<svg xmlns="http://www.w3.org/2000/svg" viewBox="0 0 300 300"><defs><style>.a{fill:#08446d;}.b{fill:#00233f;}.c{fill:#22efab;}.d{fill:#0dd396;}.e{fill:#c6640c;}.f{fill:#5a8ca8;}</style></defs><title>workingwithagencies</title><polygon class="a" points="251.7 296.6 10.5 296.6 10.5 231.8 46 197.3 251.7 197.3 251.7 296.6"/><rect class="a" x="105.1" y="3.4" width="33.1" height="28.37"/><polyline class="b" points="105.1 3.4 138.2 3.4 138.2 31.8"/><rect class="a" x="76.7" y="12.9" width="89.8" height="94.58"/><polyline class="b" points="76.7 12.9 166.6 12.9 166.6 107.4"/><rect class="b" x="57.8" y="46" width="127.7" height="250.62"/><rect class="c" x="109.8" y="69.6" width="23.6" height="23.64"/><polyline class="d" points="133.4 69.6 133.4 93.3 109.8 93.3"/><rect class="c" x="109.8" y="102.7" width="23.6" height="23.64"/><polyline class="d" points="133.4 102.7 133.4 126.4 109.8 126.4"/><rect class="c" x="109.8" y="135.8" width="23.6" height="23.64"/><polyline class="d" points="133.4 135.8 133.4 159.5 109.8 159.5"/><rect class="c" x="109.8" y="168.9" width="23.6" height="23.64"/><polyline class="d" points="133.4 168.9 133.4 192.6 109.8 192.6"/><rect class="c" x="109.8" y="202" width="23.6" height="23.64"/><polyline class="d" points="133.4 202 133.4 225.7 109.8 225.7"/><rect class="c" x="76.7" y="102.7" width="23.6" height="23.64"/><polyline class="d" points="100.3 102.7 100.3 126.4 76.7 126.4"/><rect class="c" x="76.7" y="135.8" width="23.6" height="23.64"/><polyline class="d" points="100.3 135.8 100.3 159.5 76.7 159.5"/><rect class="c" x="76.7" y="168.9" width="23.6" height="23.64"/><polyline class="d" points="100.3 168.9 100.3 192.6 76.7 192.6"/><rect class="c" x="76.7" y="202" width="23.6" height="23.64"/><polyline class="d" points="100.3 202 100.3 225.7 76.7 225.7"/><rect class="c" x="76.7" y="69.6" width="23.6" height="23.64"/><polyline class="d" points="100.3 69.6 100.3 93.3 76.7 93.3"/><rect class="c" x="142.9" y="69.6" width="23.6" height="23.64"/><polyline class="d" points="166.6 69.6 166.6 93.3 142.9 93.3"/><rect class="c" x="142.9" y="102.7" width="23.6" height="23.64"/><polyline class="d" points="166.6 102.7 166.6 126.4 142.9 126.4"/><rect class="c" x="142.9" y="135.8" width="23.6" height="23.64"/><polyline class="d" points="166.6 135.8 166.6 159.5 142.9 159.5"/><rect class="c" x="142.9" y="168.9" width="23.6" height="23.64"/><polyline class="d" points="166.6 168.9 166.6 192.6 142.9 192.6"/><rect class="c" x="142.9" y="202" width="23.6" height="23.64"/><polyline class="d" points="166.6 202 166.6 225.7 142.9 225.7"/><path class="e" d="M138.2,291.9V254.5c0-3.3-3.3-5.2-6.6-5.2H111.2c-3.3,0-6.1,2.4-6.1,5.2v37.4h33.1Z"/><rect class="a" x="199.7" y="121.6" width="89.8" height="174.96"/><rect class="a" x="213.8" y="93.3" width="61.5" height="66.2"/><rect class="a" x="228" y="60.2" width="33.1" height="61.47"/><polygon class="a" points="225.7 124.9 244.6 9.6 263.5 124.9 244.6 143.9 225.7 124.9"/><rect class="f" x="218.6" y="140.5" width="4.7" height="137.13"/><rect class="f" x="242.2" y="140.5" width="4.7" height="137.13"/><rect class="f" x="261.1" y="140.5" width="4.7" height="137.13"/></svg>